<?xml version="1.0" standalone="no"?>
<!DOCTYPE svg PUBLIC "-//W3C//DTD SVG 1.1//EN" "http://www.w3.org/Graphics/SVG/1.1/DTD/svg11.dtd" >
<svg>
<metadata>
Created by FontForge 20090622 at Sun Oct  7 12:52:53 2018
 By deploy user
Eurotype
</metadata>
<defs>
<font id="Karina" horiz-adv-x="1024" >
  <font-face 
    font-family="Karina"
    font-weight="400"
    font-stretch="normal"
    units-per-em="2048"
    panose-1="2 11 5 0 0 0 0 0 0 0"
    ascent="1638"
    descent="-410"
    x-height="911"
    cap-height="1366"
    bbox="-170 -529 2048 1772"
    underline-thickness="49"
    underline-position="-190"
    unicode-range="U+0020-U+2022"
  />
<missing-glyph horiz-adv-x="1536" 
d="M256 0v1280h1024v-1280h-1024zM1248 32v1216h-960v-1216h960z" />
    <glyph glyph-name=".notdef" horiz-adv-x="1536" 
d="M256 0v1280h1024v-1280h-1024zM1248 32v1216h-960v-1216h960z" />
    <glyph glyph-name=".null" horiz-adv-x="0" 
 />
    <glyph glyph-name="nonmarkingreturn" horiz-adv-x="0" 
 />
    <glyph glyph-name="c32" unicode=" " horiz-adv-x="512" 
 />
    <glyph glyph-name="c33" unicode="!" horiz-adv-x="537" 
d="M303 334h-63l-74 821l-4 37q0 6 -1.5 14t-1.5 13q0 174 112 174q110 0 110 -174q0 -19 -2 -27l-4 -37zM271 211q49 0 83.5 -34.5t34.5 -84.5q0 -49 -35 -84t-83 -35q-47 0 -82 35.5t-35 83.5q0 49 34.5 84t82.5 35z" />
    <glyph glyph-name="c34" unicode="&#x22;" horiz-adv-x="836" 
d="M209 891l-58 307q0 1 -1 9.5t-1 15.5q-2 13 -3.5 25t-2.5 14v22q0 45 24.5 72t64.5 27t63.5 -27t23.5 -72q0 -43 -10 -86l-55 -307h-45zM580 891l-58 307q0 1 -1 9.5t-1 15.5q-2 13 -3.5 25t-2.5 14v22q0 45 24 72t64 27q41 0 64.5 -27t23.5 -72q0 -42 -10 -86l-55 -307
h-45z" />
    <glyph glyph-name="c35" unicode="#" 
d="M365 1356h119l-66 -412h272l64 412h119l-66 -412h207v-108h-223l-45 -287h217v-108h-234l-69 -441h-119l70 441h-273l-67 -441h-119l69 441h-213v108h230l45 287h-219v109l235 -1zM402 836l-45 -287h272l45 287h-272z" />
    <glyph glyph-name="c36" unicode="$" 
d="M854 1209v-215h-63q-24 53 -49 81q-33 35 -93 54.5t-131 19.5q-107 0 -183.5 -53.5t-76.5 -128.5q0 -50 48.5 -83.5t158.5 -59.5l82 -21l98 -25q100 -25 169 -68t105 -101t36 -127q0 -67 -29 -134q-28 -66 -75 -110q-42 -39 -99 -59.5t-163 -36.5l-19 -5v-274h-121v270
q-84 5 -141 17q-138 26 -218 73v218h58q29 -65 53 -95q36 -48 115 -74q79 -28 180 -28q74 0 132.5 22t91 62t32.5 92q0 64 -35 102q-49 52 -211 93l-86 22q-109 27 -159 48t-99 59q-93 71 -93 200q0 131 89 203q52 42 116 65q64 24 175 40v239h121v-237h14q20 0 82 -7
q98 -12 172 -34z" />
    <glyph glyph-name="c37" unicode="%" horiz-adv-x="1448" 
d="M1248 1382l-914 -1402l-119 -1l762 1165q-86 -54 -168 -54q-69 0 -129 33v-12v-41q0 -153 -77 -239.5t-212 -86.5q-133 0 -216 87q-83 88 -83 230q0 95 37 168q36 74 103.5 113.5t156.5 39.5q70 0 133 -28q28 -12 42.5 -24t66.5 -62q91 -84 184 -84q83 0 179 61
q75 50 139 137h115zM754 295q0 95 37 168q38 73 105 114q68 39 157 39q88 0 156 -39q68 -41 105 -114q38 -73 38 -168q0 -94 -37 -166q-36 -73 -104.5 -112t-157.5 -39q-136 0 -217.5 86.5t-81.5 230.5zM231 1059q0 -94 42 -148q41 -53 116 -55q76 0 117 56t41 155
q0 100 -41 154.5t-117 54.5q-158 0 -158 -217zM889 297q0 -100 43 -155.5t123 -55.5q77 0 119 56q43 56 43 155q0 98 -43.5 152.5t-120.5 54.5t-120.5 -54.5t-43.5 -152.5z" />
    <glyph glyph-name="c38" unicode="&#x26;" horiz-adv-x="1397" 
d="M1405 609v-72h-28q-49 0 -73.5 -8t-36.5 -28t-17 -62q-7 -50 -13 -82q-15 -84 -71 -164q-80 -109 -216.5 -167.5t-316.5 -58.5q-122 0 -224.5 31t-176.5 90q-73 58 -112.5 138t-39.5 176q0 124 78 217q38 45 70.5 66t130.5 61q2 2 14 6v10q-95 36 -157 117t-62 170
q0 77 43 152t112 116q120 74 320 74q85 0 199.5 -19t185.5 -45v-245h-66q-72 186 -309 186q-133 0 -217 -62.5t-84 -160.5q0 -99 76 -162q45 -36 96.5 -49t149.5 -13h49v-124q-23 4 -55 4q-97 0 -170 -20q-89 -27 -150 -107t-61 -172q0 -86 49 -156t136 -110q86 -39 194 -39
q115 0 210 42q95 43 149 117t54 164q0 65 -37 91t-131 26h-16v72h524z" />
    <glyph glyph-name="c39" unicode="'" horiz-adv-x="369" 
d="M162 891l-57 307q0 1 -1 9.5t-1 15.5q-2 13 -3.5 25t-2.5 14v22q0 45 24 72t64 27t64 -27t24 -72q0 -43 -10 -86l-56 -307h-45z" />
    <glyph glyph-name="c40" unicode="(" horiz-adv-x="641" 
d="M549 -316l-59 -59q-40 34 -103 115t-116 168q-88 143 -133.5 293.5t-45.5 306.5q0 313 179 600q51 83 115 166t104 117l59 -60l-8 -12l-70 -102q-45 -68 -87 -166.5t-66 -194.5q-43 -160 -43 -348q0 -313 116 -564q31 -62 81 -145t77 -115z" />
    <glyph glyph-name="c41" unicode=")" horiz-adv-x="588" 
d="M39 -316q29 33 76 112q48 79 82 148q56 124 85.5 267t29.5 297q0 195 -41 348q-25 98 -67.5 197t-86.5 164l-70 102l-8 12l60 60q40 -34 105 -118t114 -165q88 -142 134 -293q44 -151 44 -307q0 -101 -20 -205q-20 -103 -59 -200.5t-99 -194.5q-51 -84 -115 -166
q-63 -82 -104 -117z" />
    <glyph glyph-name="c42" unicode="*" 
d="M494 989q-3 90 -12 138q-8 49 -33 114q-17 44 -17 62q0 34 23 57t57 23q36 0 59 -22t23 -56q0 -20 -16 -64q-41 -106 -43 -227l-2 -25q75 46 112 77t84 87q29 35 45 45q15 11 41 11q33 0 57 -25q23 -24 23 -57q0 -32 -14 -50q-11 -11 -27 -16q-16 -11 -43 -14
q-3 -2 -39 -8q-95 -17 -198 -74l-21 -10l21 -11q102 -56 198 -73q44 -7 47 -9q19 -3 37 -12q39 -20 39 -65q0 -36 -24.5 -60t-59.5 -24q-18 0 -30 6q-21 10 -56 55t-96 94q-39 30 -96 64l2 -23q0 -56 6 -90q7 -61 29 -121l14 -43q10 -23 10 -39q0 -33 -23 -54t-59 -21
q-35 0 -57.5 21.5t-22.5 55.5q0 21 17 64q25 65 33 113q9 48 12 137q-53 -32 -96 -64l-25 -20.5t-25 -22.5q-12 -12 -51 -57q-29 -37 -44.5 -47t-45.5 -10q-29 0 -52 26q-24 27 -24 60q0 66 103 84q54 8 73 14q63 16 166 72q-35 19 -102 51q-52 21 -137 35q-55 9 -79 28.5
t-24 55.5q0 35 22 59q22 25 56 25q29 0 44.5 -10t43.5 -46q46 -54 85.5 -87t111.5 -77z" />
    <glyph glyph-name="c43" unicode="+" horiz-adv-x="2048" 
d="M957 1049h135v-451h448v-131h-448v-450h-135v450h-449v131h449v451z" />
    <glyph glyph-name="c44" unicode="," horiz-adv-x="541" 
d="M109 -246q4 4 6 8v0l39 45q73 84 95 162q-124 19 -124 121q0 49 33 82t84 33q58 0 90.5 -37.5t32.5 -105.5q0 -86 -47 -172q-49 -87 -152 -185z" />
    <glyph glyph-name="c45" unicode="-" horiz-adv-x="682" 
d="M592 449h-504v129h504v-129z" />
    <glyph glyph-name="c46" unicode="." horiz-adv-x="512" 
d="M256 211q49 0 84 -35t35 -84q0 -48 -35 -83.5t-82 -35.5q-48 0 -83.5 35.5t-35.5 83.5q0 49 34.5 84t82.5 35z" />
    <glyph glyph-name="c47" unicode="/" horiz-adv-x="989" 
d="M678 1424h127l-516 -1670h-127z" />
    <glyph glyph-name="c48" unicode="0" 
d="M504 1381q107 0 192 -49t143.5 -140.5t90 -223t31.5 -298.5q0 -210 -54 -366q-53 -156 -153 -240t-234 -84q-102 0 -187 43q-85 41 -136 117q-63 95 -98 231t-35 291q0 165 30 299t87 228q58 93 139 143q82 49 184 49zM506 1264q-87 0 -149 -67q-63 -66 -95 -195
t-32 -310q0 -305 68.5 -453.5t211.5 -148.5q283 0 283 578q0 174 -18 293q-16 96 -52 164q-37 69 -92 104t-125 35z" />
    <glyph glyph-name="c49" unicode="1" 
d="M633 1356v-1212q0 -87 141 -87v-57h-448v57q91 7 121 25.5t30 69.5v1038q-48 -16 -90 -26q-6 -2 -30 -7q-23 -4 -48 -10q-44 -10 -75 -12v61q105 25 189.5 68t125.5 92h84z" />
    <glyph glyph-name="c50" unicode="2" 
d="M78 1252q160 129 387 129q126 0 227 -53t158 -147q58 -93 58 -208q0 -158 -119 -299q-41 -50 -85 -85t-147 -99q-161 -100 -260 -199q-53 -55 -69 -80.5t-29 -75.5h555q123 0 123 93l-2 8h51v-236h-883q3 98 29 176q30 89 100.5 175.5t164.5 152.5l147 105q91 64 147 121
t81.5 114t25.5 121q0 84 -40 150t-110 102q-71 37 -160 37q-71 0 -131 -26.5t-99 -75t-52 -113.5h-68v213z" />
    <glyph glyph-name="c51" unicode="3" 
d="M123 1290q158 91 367 91q106 0 189.5 -39t130 -109t46.5 -160q0 -182 -219 -266q84 -36 129 -65q71 -45 111.5 -121.5t40.5 -163.5q0 -100 -56 -198q-58 -98 -157 -167q-159 -112 -416 -112q-143 0 -246 30v220h66q12 -66 63.5 -96.5t149.5 -30.5q123 0 219.5 43
t149.5 121t53 178q0 61 -24.5 122t-59.5 91q-36 31 -98.5 53t-114.5 22h-88v121h59q124 0 198 57t74 150q0 94 -62 146q-63 53 -173 53q-107 0 -180 -42t-97 -118h-55v190z" />
    <glyph glyph-name="c52" unicode="4" 
d="M794 1356v-911h171v-136h-171v-163q0 -51 14 -69q12 -19 46 -19h8v-58h-290v58q41 0 56 18.5t15 69.5v163h-614v136l637 911h128zM643 445v673l-471 -673h471z" />
    <glyph glyph-name="c53" unicode="5" 
d="M62 -6v238h53q13 -66 47 -91q34 -24 115 -24q134 0 246 57q113 57 177 156t64 219q0 86 -34 152q-34 67 -96.5 103.5t-141.5 36.5q-123 0 -203 -79q-35 -32 -80 -100l-100 33l31 661h700l-62 -144h-520l-14 -334q111 93 274 93q118 0 213.5 -55t149 -152t53.5 -217
q0 -160 -89.5 -290.5t-249 -203.5t-355.5 -73q-111 0 -178 14z" />
    <glyph glyph-name="c54" unicode="6" 
d="M885 1325v-192h-47q-52 125 -211 125q-99 0 -182 -56q-83 -58 -131 -159q-75 -159 -78 -308q43 53 84 89q104 81 235 81q116 0 210 -58.5t147.5 -160.5t53.5 -227q0 -194 -116 -340q-114 -141 -321 -141q-146 0 -249 73q-102 74 -154.5 216t-52.5 348q0 170 40 312.5
t112.5 243.5t174.5 155.5t225 54.5q88 0 174 -25q50 -15 86 -31zM250 436q0 -95 35 -171q35 -75 99 -117q63 -41 143 -41q79 0 143 44t99.5 122t35.5 176q0 95 -34 169t-94.5 115t-137.5 41q-127 0 -208 -94.5t-81 -243.5z" />
    <glyph glyph-name="c55" unicode="7" 
d="M525 0h-172v19q0 89 14 190q15 104 41 197q19 70 42.5 130.5t56.5 126t102 190.5q86 155 125 233q33 70 47 137h-519q-64 0 -93 -23q-29 -22 -38 -79h-47v233h824v-25q-1 -85 -11 -133q-9 -48 -42 -131q-46 -111 -111 -244q-74 -153 -98 -209.5t-54 -146.5
q-37 -120 -52 -212t-15 -204v-49z" />
    <glyph glyph-name="c56" unicode="8" 
d="M287 758q-91 55 -133 121q-41 66 -41 158q0 103 49 180q48 78 138 120t210 42q94 0 169 -23q75 -25 128 -69.5t80.5 -107.5t27.5 -142q0 -180 -173 -279v-8q118 -60 173 -145q56 -85 56 -209q0 -101 -30 -179t-88 -131t-144 -80.5t-195 -27.5q-142 0 -245 48t-156 140
q-53 93 -53 221t55 215q54 88 174 148zM273 1032q0 -96 67 -157.5t174 -61.5q110 0 177 61.5t67 159.5q0 106 -64.5 164t-183.5 58q-112 0 -174.5 -59t-62.5 -165zM226 383q9 -139 83 -210q75 -72 209 -72q88 0 152 36q65 36 99 105t34 162q0 85 -35.5 149t-100.5 98.5
t-153 34.5q-87 0 -152 -34.5t-100.5 -98.5t-35.5 -149v-21z" />
    <glyph glyph-name="c57" unicode="9" 
d="M140 33v193h47q51 -125 211 -125q98 0 182 57t131 158q75 157 78 307q-51 -62 -84 -88q-100 -82 -236 -82q-115 0 -208 58q-94 59 -148 161q-53 101 -53 225q0 93 29.5 182.5t84.5 159.5q115 142 322 142q221 0 338 -164.5t117 -474.5q0 -172 -38 -312
q-40 -140 -113 -241.5t-175 -156t-225 -54.5q-86 0 -174 22q-35 10 -86 33zM774 920q0 97 -35 172.5t-98 117.5t-143 42t-143 -45q-64 -44 -100 -123t-36 -176q0 -143 75 -234.5t192 -91.5q83 0 149 43q65 44 102 121q37 78 37 174z" />
    <glyph glyph-name="c58" unicode=":" horiz-adv-x="512" 
d="M256 211q49 0 84 -35t35 -84q0 -48 -35 -83.5t-82 -35.5q-48 0 -83.5 35.5t-35.5 83.5q0 49 34.5 84t82.5 35zM256 760q49 0 84 -35t35 -84q0 -48 -34.5 -83.5t-82.5 -35.5q-49 0 -83 36q-36 35 -36 83q0 49 34.5 84t82.5 35z" />
    <glyph glyph-name="c59" unicode=";" horiz-adv-x="512" 
d="M256 760q49 0 84 -35t35 -84q0 -48 -34.5 -83.5t-82.5 -35.5q-49 0 -83.5 35.5t-34.5 83.5q0 49 34 84t82 35zM123 -244q4 4 6 8v0q1 0 39 45q73 84 94 162q-121 15 -121 119q0 50 34 84q32 33 81 33q59 0 91 -37.5t32 -105.5q0 -86 -47.5 -172.5t-151.5 -186.5z" />
    <glyph glyph-name="c60" unicode="&#x3c;" horiz-adv-x="2048" 
d="M1544 1069v-127l-868 -407l868 -408v-127l-1042 477v113z" />
    <glyph glyph-name="c61" unicode="=" horiz-adv-x="2048" 
d="M508 795h1032v-131h-1032v131zM508 402h1032v-131h-1032v131z" />
    <glyph glyph-name="c62" unicode="&#x3e;" horiz-adv-x="2048" 
d="M504 1069l1042 -479v-113l-1042 -477v127l868 408l-868 407v127z" />
    <glyph glyph-name="c63" unicode="?" horiz-adv-x="930" 
d="M379 357h-84v272h14q62 -3 62 -4v0h20q147 0 227 74q81 73 81 209q0 101 -46.5 183.5t-127 129.5t-179.5 47q-86 0 -134 -34t-68 -109h-56v219q48 21 123 35t152 14q140 0 254.5 -67t179.5 -183t65 -260q0 -116 -51 -206.5t-144 -142.5t-212 -55h-76v-122zM338 211
q49 0 83 -34.5t34 -84.5q0 -49 -35 -84q-34 -35 -82 -35t-83 36q-36 34 -36 83t35 84t84 35z" />
    <glyph glyph-name="c64" unicode="@" horiz-adv-x="2091" 
d="M1401 1006h164l-195 -690q-4 -17 -4 -39q0 -52 25.5 -83.5t66.5 -31.5q45 0 114.5 38.5t125.5 94.5q188 192 188 486q0 142 -52 262q-52 121 -148.5 209t-228 136t-287.5 48q-185 0 -346 -69q-162 -71 -283.5 -196t-187.5 -293q-68 -169 -68 -358q0 -325 203 -528
q73 -73 171 -125.5t211 -80.5t230 -28q168 0 344 57q82 27 141 59.5t160 102.5l41 -43q-97 -69 -154.5 -101t-140.5 -61q-205 -71 -420 -71q-202 0 -372 60t-294 172q-123 113 -189 268q-66 156 -66 340q0 259 134 479t365.5 347.5t503.5 127.5q172 0 318 -51.5t252 -147.5
q105 -95 162.5 -227t57.5 -286q0 -131 -40 -252q-39 -122 -111 -217.5t-162.5 -149t-187.5 -53.5q-65 0 -114 23.5t-75 68t-26 102.5v31q-57 -92 -82 -117q-45 -49 -111.5 -78.5t-128.5 -29.5q-82 0 -148 44t-103 122.5t-37 177.5q0 113 48 222t138 200q152 155 320 155
q104 0 170 -77q32 -41 59 -125zM934 168q90 0 156 76q62 73 109 162t72 183q26 94 26 177q0 93 -44.5 153t-113.5 60q-77 0 -141 -67q-57 -64 -107 -161q-49 -96 -77.5 -198.5t-28.5 -185.5q0 -91 40 -145t109 -54z" />
    <glyph glyph-name="c65" unicode="A" horiz-adv-x="1186" 
d="M803 549h-471l-162 -416q-10 -21 -10 -32q0 -31 45 -39q1 0 4 -1q4 -1 6 -1v-60h-252v60q23 4 36.5 19.5t27.5 51.5l500 1235h125l512 -1247q21 -52 51 -59v-60h-282v60q53 5 53 28q0 14 -12 45zM756 671l-193 478l-184 -478h377z" />
    <glyph glyph-name="c66" unicode="B" horiz-adv-x="1286" 
d="M86 1366h586q217 0 334 -84t117 -241q0 -93 -50 -160q-50 -66 -161 -119q67 -18 98 -31q67 -26 115 -72.5t74 -111.5q24 -66 24 -143q0 -84 -28 -156q-29 -71 -81 -119q-77 -71 -194.5 -100t-329.5 -29h-504v60q68 5 68 65l-2 1110q0 33 -15 50q-14 16 -51 22v59z
M322 824h360q260 0 260 204q0 64 -30 112t-85.5 73.5t-129.5 25.5h-375v-415zM322 125h332q184 0 282 74q96 73 96 211q0 81 -44 147.5t-122 103.5q-77 38 -174 38h-370v-574z" />
    <glyph glyph-name="c67" unicode="C" horiz-adv-x="1295" 
d="M1264 1190l-174 -174l-47 45q18 29 18 49q0 63 -87 107.5t-210 44.5q-112 0 -205 -34.5t-158 -99.5q-66 -64 -101.5 -156t-35.5 -204q0 -269 187 -459q96 -96 225 -151q130 -57 254 -57q89 0 145 35q55 36 66 100h59v-246q-127 -20 -290 -20q-229 0 -422.5 104.5
t-306 285t-112.5 394.5q0 180 89 326q89 147 245 230t347 83q317 0 514 -203z" />
    <glyph glyph-name="c68" unicode="D" horiz-adv-x="1399" 
d="M90 60q44 4 59 23t15 65v1071q0 51 -13.5 67t-60.5 21v59h306q260 0 460 -59q107 -32 195 -97.5t150 -159.5q62 -93 95 -208.5t33 -243.5q0 -294 -184 -454q-124 -105 -287 -129q-108 -15 -215 -15h-137h-416v60zM334 131h275q99 0 165.5 9t116.5 31q51 22 98 61
q145 120 145 372q0 114 -28 212t-80 174q-54 77 -132 130t-175 76q-148 39 -385 41v-1106z" />
    <glyph glyph-name="c69" unicode="E" horiz-adv-x="1186" 
d="M80 0v60q43 4 58.5 23t15.5 65v1071q0 47 -16 66t-58 22v59h1012v-233h-55q-14 64 -38.5 84t-88.5 20h-588v-401h495q44 0 64 12t31 45q0 2 4 10h51v-266h-51q-11 35 -19 43q-23 27 -80 27h-495v-578h639q65 0 95 28t36 93h51v-250h-1063z" />
    <glyph glyph-name="c70" unicode="F" horiz-adv-x="1186" 
d="M322 836h524q90 0 98 67h54v-266h-54q-9 70 -96 70h-526v-545q0 -45 3.5 -58.5t20.5 -27.5t50 -16v-60h-316v60q43 4 58.5 23t15.5 65v1071q0 47 -15.5 65t-58.5 23v59h1071v-233h-53q-12 61 -39 83q-26 21 -90 21h-647v-401z" />
    <glyph glyph-name="c71" unicode="G" horiz-adv-x="1401" 
d="M989 727v58h316v-58q-45 -6 -59.5 -23t-14.5 -65v-510q0 -38 11 -54.5t38 -21.5v-55l-20 -2q-162 -22 -291 -22q-197 0 -362 54.5t-285.5 156t-185.5 243t-65 307.5q0 142 51 262.5t144 209t221 137.5q128 47 277 47q100 0 197.5 -27.5t180.5 -79t148 -125.5l-174 -172
l-47 43q17 27 17 52q0 22 -15 47q-38 61 -124 99q-85 38 -185 38q-141 0 -256 -65q-114 -65 -178 -180.5t-64 -260.5q0 -138 51.5 -258t145.5 -210.5t219 -138.5q126 -50 271 -50q59 0 110 12v508q0 41 -2 47q0 22 -20 39q-19 16 -50 18z" />
    <glyph glyph-name="c72" unicode="H" horiz-adv-x="1377" 
d="M975 1366h315v-59q-42 -5 -57.5 -23.5t-15.5 -64.5v-1071q0 -46 15.5 -65t57.5 -23v-60h-315v60q30 2 49 16q18 12 21.5 26.5t3.5 59.5v545h-723v-545q0 -43 4 -57t20 -29q17 -14 50 -16v-60h-316v60q43 4 58 23q16 19 16 65v1071q0 46 -16 65q-15 18 -58 23v59h316v-59
q-30 -3 -50 -17q-15 -13 -19.5 -27.5t-4.5 -58.5v-378h723v378q0 46 -4 59q-4 14 -21 27q-16 14 -49 17v59z" />
    <glyph glyph-name="c73" unicode="I" horiz-adv-x="486" 
d="M84 1307v59h316v-59q-74 -3 -74 -88v-1071q0 -46 15.5 -65t58.5 -23v-60h-316v60q30 2 49 16q17 12 21 26.5t4 59.5v1042q0 46 -4 59q-4 14 -21 27q-16 14 -49 17z" />
    <glyph glyph-name="c74" unicode="J" horiz-adv-x="969" 
d="M877 1307q-43 -5 -58.5 -23.5t-15.5 -64.5v-778q0 -133 -29 -218q-28 -78 -91.5 -136.5t-152.5 -90.5q-90 -31 -194 -31q-141 0 -233 68q-58 43 -107 105.5t-74 127.5l181 148l43 -49q-33 -44 -33 -80q0 -74 68 -125q69 -51 167 -51q87 0 152 35.5t99 102t34 157.5v800
q0 45 -3.5 59t-18.5 27q-20 14 -50 17v59h316v-59z" />
    <glyph glyph-name="c75" unicode="K" horiz-adv-x="1295" 
d="M90 0v60q43 4 58.5 23t15.5 65v1071q0 46 -15.5 64.5t-58.5 23.5v59h316v-59q-32 -3 -51 -17q-16 -12 -19.5 -26t-3.5 -60v-454l545 502l14 14t6 12q0 9 -16.5 17t-38.5 8q-4 0 -8 -2v65h379v-65q-73 -5 -125 -49l-371 -322l463 -788q30 -51 47 -64q15 -10 47 -18v-60
h-330v60h11q49 3 49 26q0 3 -8 19l-9 16l-399 707l-256 -230v-436q0 -44 3.5 -58t19.5 -28q19 -14 51 -16v-60h-316z" />
    <glyph glyph-name="c76" unicode="L" horiz-adv-x="1090" 
d="M76 1366h315v-59q-30 -3 -49 -19q-15 -13 -19.5 -27t-4.5 -59v-1073h563q69 0 100.5 28.5t32.5 92.5h51v-250h-989v58q44 6 59 24t15 64v1073q0 47 -15.5 65t-58.5 23v59z" />
    <glyph glyph-name="c77" unicode="M" horiz-adv-x="1493" 
d="M246 0h-261v60q23 5 37 14q17 11 23 22t10 39l197 1098q4 12 4 27q0 36 -41 45l-8 2v59h229l318 -790l295 790h237v-59q-55 -12 -55 -45v0q1 0 8 -47l191 -1084q6 -34 19 -48q14 -14 48 -23v-60h-295v60q56 3 56 34q0 17 -4 33l-166 1000l-310 -809h-83l-324 809
l-179 -1004q-2 -10 -2 -26q0 -29 56 -37v-60z" />
    <glyph glyph-name="c78" unicode="N" horiz-adv-x="1374" 
d="M78 0v60q43 4 58.5 23t15.5 65v1085q0 38 -16 54q-17 17 -58 20v59h254l754 -661v499q2 7 2 19q0 78 -74 84v59h283v-59q-43 -5 -58.5 -23t-15.5 -65v-1071q0 -46 15.5 -65t58.5 -23v-60h-283v60q30 2 49 16q16 12 19.5 26.5t3.5 59.5v301l-797 701v-1002q0 -44 3.5 -58
t19.5 -28q18 -14 49 -16v-60h-283z" />
    <glyph glyph-name="c79" unicode="O" horiz-adv-x="1530" 
d="M1469 674q0 -206 -89 -367t-249 -250.5t-363 -89.5q-204 0 -364 89.5t-248.5 250.5t-88.5 367q0 205 88.5 366.5t248.5 251t364 89.5q154 0 283.5 -51t222.5 -145t145 -225q50 -131 50 -286zM1272 674q0 133 -35 240t-101 183t-160 117q-93 40 -208 40t-209 -40
q-93 -41 -160 -117q-66 -76 -101.5 -184t-35.5 -239q0 -130 35.5 -238t102.5 -184.5t160 -117t208 -40.5t208 40.5t159.5 117t101.5 183.5t35 239z" />
    <glyph glyph-name="c80" unicode="P" horiz-adv-x="1108" 
d="M88 1366h533q134 0 234 -44q101 -44 154.5 -125.5t53.5 -192.5q0 -130 -76 -223q-54 -70 -132 -127q-80 -57 -201.5 -112.5t-306.5 -119.5l-17 -6v-254q0 -45 3.5 -58.5t19.5 -27.5q19 -14 51 -16v-60h-316v60q42 4 57 23t15 65v1071q0 46 -15 64.5t-57 23.5v59zM330 557
l19 6q128 48 192 77t143 75q190 116 190 283q0 65 -28.5 116.5t-79.5 77.5q-97 49 -321 49q-62 0 -96 -2h-19v-682z" />
    <glyph glyph-name="c81" unicode="Q" horiz-adv-x="1530" 
d="M1559 158v-193q-52 -16 -101 -16q-45 0 -84 13q-38 13 -98 48q-62 39 -96 78q-176 -121 -418 -121q-201 0 -359.5 89.5t-247 251t-88.5 366.5t88.5 366.5t248.5 251t364 89.5q203 0 363 -89t249 -249t89 -363q0 -129 -47 -255.5t-134 -229.5l15 -15q57 -52 102 -69
q25 -12 49 -12q45 0 52 59h53zM621 250l-70 72q132 135 287 135q50 0 94 -14.5t115 -53.5q68 -36 127 -92q98 154 98 373q0 133 -34.5 241.5t-101 185t-159.5 117t-209 40.5q-115 0 -209 -40q-93 -41 -160 -117q-66 -76 -101.5 -184t-35.5 -239q0 -129 35.5 -237.5t102 -185
t159.5 -117t205 -40.5q168 0 305 97l-18 14q-51 44 -74 57q-83 60 -176 60t-180 -72z" />
    <glyph glyph-name="c82" unicode="R" horiz-adv-x="1207" 
d="M705 621l375 -508q39 -50 100 -53v-60h-229l-447 615h-172v-452q0 -45 3.5 -58.5t19.5 -27.5q19 -15 51 -17v-60h-318v60q44 4 59 23t15 65v1071q0 48 -16 67t-58 21v59h594q210 0 320 -93t110 -271q0 -106 -46.5 -187t-137.5 -129.5t-223 -64.5zM332 1235v-495h272
q162 0 248 67t86 195q0 112 -72 172.5t-204 60.5h-330z" />
    <glyph glyph-name="c83" unicode="S" horiz-adv-x="1184" 
d="M35 309l205 130l41 -56q-30 -25 -41 -40q-10 -16 -10 -38q0 -89 100.5 -151t245.5 -62q108 0 191 33q84 33 130.5 91t46.5 132q0 73 -34 117q-44 62 -140 94q-43 17 -174 60l-184 61q-159 54 -236 137t-77 203q0 109 61 194t171.5 131.5t252.5 46.5q93 0 166 -20t158 -69
q83 -49 147 -111l-152 -178l-49 41q15 33 15 63q0 41 -41 76q-40 35 -108 56.5t-144 21.5q-84 0 -156 -29.5t-114 -80.5t-42 -111q0 -127 213 -195l220 -69q151 -48 216 -83t121 -100q37 -39 59.5 -103t22.5 -128q0 -93 -37.5 -169t-108.5 -129t-172 -82q-101 -28 -224 -28
q-134 0 -232 35t-172 110t-135 199z" />
    <glyph glyph-name="c84" unicode="T" horiz-adv-x="1184" 
d="M19 1366h1132v-233h-53q-9 57 -40 80q-30 22 -101 22h-287v-1073q0 -44 3 -58q4 -14 19 -28q20 -14 52 -16v-60h-316v60q42 4 57 23t15 65v1087h-284q-71 0 -103 -22q-31 -22 -41 -80h-53v233z" />
    <glyph glyph-name="c85" unicode="U" horiz-adv-x="1354" 
d="M1250 60v-60h-508q-108 0 -163.5 3.5t-95.5 12.5q-41 10 -96 31q-96 38 -168 111t-111 171.5t-39 211.5q0 148 64 336q29 88 56 145q13 36 71 146q27 49 37 65q15 29 15 37q0 28 -70 37v59h330v-59q-66 -28 -99 -64q-57 -62 -108.5 -175t-81 -240t-29.5 -236
q0 -120 35 -221q36 -100 117 -166q37 -30 82 -49t105 -27t145 -8h268v1083q0 45 -4 59q-3 14 -19 27q-16 14 -49 17v59h316v-59q-43 -5 -58.5 -23t-15.5 -65v-1079q0 -46 15 -62.5t59 -17.5z" />
    <glyph glyph-name="c86" unicode="V" horiz-adv-x="1075" 
d="M590 0h-106l-454 1243q-12 33 -24.5 46t-34.5 16v61h295v-59q-51 -9 -51 -39q0 -6 4 -18l344 -957l340 938q7 15 7 27q0 37 -54 47v61h260v-63q-29 -9 -36 -17q-23 -14 -43 -75z" />
    <glyph glyph-name="c87" unicode="W" horiz-adv-x="1723" 
d="M592 0h-110l-448 1254q-18 43 -56 51v61h289v-59q-51 -4 -51 -39q0 -10 6 -29l346 -960l244 643l-123 325q-12 33 -22.5 44t-37.5 14v61h285v-63h-8q-43 -6 -43 -33q0 -5 6 -29l338 -948l342 930q8 19 8 33q0 33 -55 47l-1 63h261v-61q-31 -14 -46.5 -31t-29.5 -53
l-449 -1221h-98l-270 766z" />
    <glyph glyph-name="c88" unicode="X" horiz-adv-x="1180" 
d="M301 0h-329v58q36 10 59 26q21 12 30 21.5t28 36.5l401 575l-368 533q-17 28 -50 45q-6 2 -13.5 3.5t-27.5 6.5v61h373v-63q-2 0 -5.5 -1t-4.5 -1q-53 -6 -53 -39q0 -12 16 -39l254 -367l260 377q12 21 12 31q0 30 -57 39v63h318v-63q-66 -15 -111 -80l-340 -485
l426 -617q38 -52 92 -65v-56h-369v56q64 12 64 41q0 15 -10 26l-328 473l-309 -461q-15 -23 -15 -41q0 -28 58 -38z" />
    <glyph glyph-name="c89" unicode="Y" horiz-adv-x="1075" 
d="M375 0v58q39 6 54.5 23t15.5 52v373l-400 719q-29 52 -49 65q-7 5 -33 15v61h320v-59q-4 -2 -8 -2q-37 -11 -37 -33q0 -12 14 -35l311 -588l308 592q10 27 10 31q0 24 -51 33v61h266v-61q-29 -8 -47 -23q-17 -16 -37 -53l-383 -725v-369q0 -65 74 -75v-60h-328z" />
    <glyph glyph-name="c90" unicode="Z" horiz-adv-x="1073" 
d="M996 1366v-104l-742 -1137h598q106 0 121 103h55v-228h-991v109l737 1130h-479q-52 0 -78.5 -21.5t-36.5 -74.5h-55v223h871z" />
    <glyph glyph-name="c91" unicode="[" horiz-adv-x="615" 
d="M180 1376h365v-51h-72q-85 0 -108 -20q-17 -13 -22 -34.5t-5 -82.5v-1293q0 -59 5 -80.5t22 -35.5q23 -21 108 -21h72v-51h-365v1669z" />
    <glyph glyph-name="c92" unicode="\" horiz-adv-x="570" 
d="M-43 1397l783 -1616h-127l-783 1616h127z" />
    <glyph glyph-name="c93" unicode="]" horiz-adv-x="615" 
d="M434 1376v-1669h-364v51h72q85 0 108 21q27 20 27 116v1293q0 59 -5 81.5t-22 35.5q-23 20 -108 20h-72v51h364z" />
    <glyph glyph-name="c94" unicode="^" horiz-adv-x="961" 
d="M930 914h-154l-294 290l-308 -290h-152l390 442h139z" />
    <glyph glyph-name="c95" unicode="_" 
d="M0 -389h1024v-100h-1024v100z" />
    <glyph glyph-name="c96" unicode="`" 
d="M609 1088h-61l-263 153q-68 40 -68 92q0 26 18.5 43t45.5 17q53 0 98 -51z" />
    <glyph glyph-name="c97" unicode="a" horiz-adv-x="981" 
d="M928 1h-236v98q-152 -117 -313 -117q-91 0 -165 36q-73 36 -115 102q-41 65 -41 144q0 203 215 304q81 37 156 54t245 36l16 2q-6 80 -63.5 123t-157.5 43q-124 0 -200 -54q-34 -25 -68 -82h-49v166q160 88 330 88q183 0 277.5 -80.5t94.5 -234.5v-502q0 -37 16.5 -55
t57.5 -25v-46zM692 545q-460 -46 -460 -272q0 -68 51 -112q52 -44 133 -44q76 0 154 41t122 106v281z" />
    <glyph glyph-name="c98" unicode="b" horiz-adv-x="1077" 
d="M289 1364v-516q29 16 43 23l37 18q118 47 225 47q116 0 209.5 -55.5t145.5 -154.5q53 -98 53 -220q0 -145 -70 -261q-70 -115 -196 -180t-283 -65h-395v49q46 8 57.5 21.5t11.5 56.5v1104q0 45 -16 64t-58 20v49h236zM289 707v-592h18q48 -3 80 -3q134 0 233 48
q99 46 152.5 133.5t53.5 206.5q0 89 -35 158q-36 70 -100 108.5t-144 38.5q-107 0 -244 -88z" />
    <glyph glyph-name="c99" unicode="c" horiz-adv-x="969" 
d="M930 781l-143 -158l-41 35q16 29 16 51q0 46 -59.5 78t-145.5 32q-87 0 -159 -42q-71 -43 -111.5 -118t-40.5 -167q0 -106 56 -199q55 -92 148 -146.5t202 -54.5q119 0 151 88h47v-184q-104 -22 -196 -22q-159 0 -294 69q-134 69 -212.5 188t-78.5 261q0 130 60.5 232
t169.5 158t248 56q225 0 383 -157z" />
    <glyph glyph-name="c100" unicode="d" horiz-adv-x="1080" 
d="M705 1315v49h237v-1237q0 -43 13.5 -57.5t56.5 -20.5v-48h-223v104q-123 -123 -305 -123q-121 0 -215 53q-94 54 -146 151t-52 222q0 135 59.5 247t167.5 183q82 52 181 74.5t263 23.5h39v295q0 45 -17 63q-16 18 -59 21zM781 813h-23q-158 0 -247 -25q-88 -25 -152 -87
q-51 -49 -81 -127t-30 -156q0 -132 79 -220q78 -87 195 -87q140 0 259 137v565z" />
    <glyph glyph-name="c101" unicode="e" horiz-adv-x="971" 
d="M908 469h-676q6 -85 33.5 -153.5t76.5 -119.5t112 -78.5t138 -27.5q165 0 227 133h50v-182q-32 -16 -99 -35q-89 -24 -124.5 -30t-90.5 -6q-228 0 -362 149q-61 67 -95 160q-36 94 -36 188q0 129 58 238q59 109 159.5 172t218.5 63q120 0 213.5 -57.5t144.5 -162.5
q52 -105 52 -238v-13zM730 579q-5 50 -14 88q-21 74 -75 114t-137 40q-104 0 -174 -64q-69 -64 -88 -178h488z" />
    <glyph glyph-name="c102" unicode="f" horiz-adv-x="537" 
d="M594 1354v-176h-49q-35 100 -123 100q-61 0 -86 -48q-24 -48 -24 -171q0 -39 6 -131v-16h190v-121h-190v-668q0 -32 12 -48q12 -15 45 -24q6 0 10 -2v-49h-305v49q72 13 72 72v670h-94v121h96q-4 45 -4 104q0 129 29 211t91 120.5t160 38.5q73 0 164 -32z" />
    <glyph glyph-name="c103" unicode="g" horiz-adv-x="1073" 
d="M45 -240l168 152l37 -35q-22 -28 -22 -55q0 -51 78.5 -90t179.5 -39q95 0 172 31t121.5 86t44.5 122q0 80 -41 173q-127 -121 -310 -121q-88 0 -162 28.5t-129 83.5t-84 130.5t-29 164.5q0 144 70 263t191 188.5t266 69.5h422v-51q-46 -5 -61 -21t-15 -62v-620l4 -37
l19 -53q1 -8 4 -21q4 -13 6 -28q10 -66 10 -95q0 -98 -64 -180.5t-174.5 -129t-244.5 -46.5q-139 0 -259 50.5t-198 141.5zM781 793q-31 4 -74 4q-124 0 -209 -28q-111 -36 -180 -137q-70 -100 -70 -226q0 -134 73.5 -216.5t190.5 -82.5q50 0 99 17q55 17 102 59
q14 10 60 53l8 8v549z" />
    <glyph glyph-name="c104" unicode="h" horiz-adv-x="1075" 
d="M1018 0h-299v49q45 7 57.5 21t12.5 57v432q0 121 -45 179q-28 33 -73.5 52t-94.5 19q-131 0 -277 -137v-549q0 -38 13.5 -52.5t54.5 -21.5v-49h-297v49q41 7 54 22q13 16 13 56v1125q0 56 -73 63v49h235v-553q162 129 312 129q102 0 179 -41.5t119 -118.5t42 -180v-477
q0 -37 14 -52q15 -16 53 -22v-49z" />
    <glyph glyph-name="c105" unicode="i" horiz-adv-x="428" 
d="M367 49v-49h-299v49q41 5 55 21t14 57v651q0 41 -17 59q-17 19 -58 23v52h237v-789q0 -35 14 -50t54 -24zM211 1272q39 0 66.5 -27.5t27.5 -66.5q0 -40 -28 -68t-66 -28q-39 0 -67 28q-27 28 -27 68q0 38 27 66t67 28z" />
    <glyph glyph-name="c106" unicode="j" horiz-adv-x="428" 
d="M-105 -402v172h52l2 -8q16 -39 36 -54q21 -15 58 -15q46 0 70 30q20 20 27 43q0 1 1 14t1 25l2 37v936q0 41 -16 58.5t-58 23.5v52h246v-1021q0 -321 -289 -321q-78 0 -132 28zM232 1272q40 0 67 -27.5t27 -66.5q0 -40 -28 -68q-27 -28 -66 -28t-67 28q-28 29 -28 68
q0 38 27.5 66t67.5 28z" />
    <glyph glyph-name="c107" unicode="k" horiz-adv-x="969" 
d="M68 0v49q2 0 6 1l4 1q38 6 48.5 19.5t10.5 56.5v1104q0 45 -16 63t-59 21v49h237v-846l346 285q17 14 17 25q0 17 -49 30q-7 0 -11 2v52h338v-52q-28 -2 -35 -6q-12 -6 -24 -14l-25 -19l-295 -227l349 -487q10 -17 12 -17q0 -1 26 -20q22 -16 43 -21v-49h-337v49
q63 7 63 35q0 11 -8 19l-266 395l-144 -111v-264q0 -37 15 -52.5t53 -21.5v-49h-299z" />
    <glyph glyph-name="c108" unicode="l" horiz-adv-x="428" 
d="M68 0v49q41 7 55 22.5t14 55.5v1104q0 41 -16 59t-59 25v49h237v-1241q0 -35 14 -50t54 -24v-49h-299z" />
    <glyph glyph-name="c109" unicode="m" horiz-adv-x="1624" 
d="M301 912v-103q39 52 117.5 88.5t153.5 36.5q92 0 168 -42q77 -43 122 -120q133 162 304 162q98 0 173 -39q76 -40 117 -113q41 -72 41 -167v-498q0 -65 70 -68v-49h-299v49q36 3 49.5 19.5t13.5 54.5v494q0 83 -53 134.5t-139 51.5q-151 0 -240 -162v-530q0 -52 64 -62
v-49h-295v49q38 5 52.5 23t14.5 59v441q0 111 -52 172t-146 61q-55 0 -106.5 -20.5t-88.5 -55.5q-16 -16 -41 -51v-549q0 -37 15 -55t53 -25v-49h-297v49q39 7 54.5 24.5t15.5 55.5v649q0 41 -16 58q-15 16 -60 22v54h235z" />
    <glyph glyph-name="c110" unicode="n" horiz-adv-x="1073" 
d="M299 912v-101q158 127 322 127q100 0 175 -41t115 -117t40 -178v-473q0 -40 16.5 -58.5t54.5 -21.5v-49h-301v49q37 9 52.5 26t15.5 50v418q0 74 -8 119q-11 66 -65.5 106.5t-131.5 40.5q-137 0 -285 -139v-537q0 -37 13.5 -55t46.5 -25q2 -1 6 -2t6 -2v-49h-301v49
q70 10 70 76v658q0 19 -6 38q-11 22 -27 27q-3 2 -33 8l-12 4v52h237z" />
    <glyph glyph-name="c111" unicode="o" horiz-adv-x="1084" 
d="M541 938q104 0 192.5 -35.5t154 -100.5t101 -154t35.5 -193t-35 -193q-36 -88 -101 -153.5t-154 -101t-193 -35.5q-139 0 -250 61q-110 62 -172 172q-61 111 -61 250q0 138 61.5 248t172.5 172.5t249 62.5zM234 455q0 -114 37 -199t106 -130q70 -46 164 -46
q93 0 162.5 45.5t107 130t37.5 199.5t-37 199t-107 129t-163 45q-95 0 -164.5 -45t-105.5 -130q-37 -84 -37 -198z" />
    <glyph glyph-name="c112" unicode="p" horiz-adv-x="1075" 
d="M58 -428v47q71 9 71 72v1087q0 44 -17 62q-17 19 -59 20v52h238v-99q152 125 303 125q114 0 206.5 -55.5t146.5 -154.5q53 -98 53 -220q0 -74 -21.5 -146.5t-64.5 -135.5q-42 -63 -101 -111q-57 -47 -123 -76q-55 -23 -109.5 -31t-158.5 -8h-131v-312q0 -30 15 -45
t51 -22q8 0 12 -2v-47h-311zM291 674v-557q31 -5 78 -5q90 0 174 17q80 19 144.5 72t100.5 132t36 167q0 87 -35.5 157.5t-97 110t-138.5 39.5q-62 0 -138 -38.5t-124 -94.5z" />
    <glyph glyph-name="c113" unicode="q" horiz-adv-x="1084" 
d="M1006 912v-51q-68 -6 -68 -72v-1098q0 -39 13.5 -53.5t56.5 -18.5v-47h-311v47l10 2q38 3 53 17q14 15 14 50v391q-143 -107 -299 -107q-116 0 -211 56t-149 154q-53 98 -53 218t50 226t138 173q49 38 110 63q60 26 136 38t170 12h340zM774 795q-32 2 -82 2
q-108 0 -186 -20t-138.5 -73.5t-94 -131t-33.5 -164.5q0 -131 76 -217t194 -86q63 0 139.5 33.5t124.5 84.5v572z" />
    <glyph glyph-name="c114" unicode="r" horiz-adv-x="645" 
d="M609 903v-186h-46q-28 44 -56 62t-68 18q-60 0 -97 -36.5t-37 -94.5v-531q0 -44 16 -61.5t60 -24.5v-49h-311v49q40 9 56 24q14 16 14 50v672q0 26 -19 46q-18 19 -43 19h-10v52h219v-70q36 42 87 65q52 23 110 23q74 0 125 -27z" />
    <glyph glyph-name="c115" unicode="s" horiz-adv-x="856" 
d="M770 809l-127 -155l-43 32q19 34 19 49q0 38 -63 66q-62 29 -144 29q-74 0 -123 -34t-49 -83q0 -38 29 -70t79 -47l168 -47q122 -33 191 -82q46 -34 73 -87t27 -114q0 -139 -105.5 -216.5t-295.5 -77.5q-113 0 -210 41q-97 42 -163 118l152 158l34 -41q-4 -9 -4 -10
q-12 -28 -12 -43q0 -40 70 -71.5t161 -31.5q89 0 149 43t60 105q0 46 -41 83.5t-114 55.5l-80 23l-123 34q-93 28 -149 93.5t-56 146.5q0 77 43.5 137t124 92.5t186.5 32.5q99 0 192 -35t144 -94z" />
    <glyph glyph-name="c116" unicode="t" horiz-adv-x="582" 
d="M309 1198v-286h205v-119h-205v-594q0 -47 27.5 -78t69.5 -31q75 0 102 86h51v-174q-31 -10 -67 -17q-81 -14 -119 -14q-104 0 -168 60q-63 59 -63 154v608h-119v119h119v243z" />
    <glyph glyph-name="c117" unicode="u" horiz-adv-x="1075" 
d="M934 912v-783q0 -40 15 -55t63 -25v-48h-242v96q-92 -70 -161 -98q-69 -27 -152 -27q-104 0 -182 41q-77 42 -119 120q-41 78 -41 183v475q0 37 -16 52q-15 16 -54 17v52h240v-559q0 -111 33 -166q24 -38 71 -62t99 -24q108 0 213 84q30 23 69 57v549q0 29 -20.5 48.5
t-52.5 20.5v52h237z" />
    <glyph glyph-name="c118" unicode="v" horiz-adv-x="848" 
d="M865 912v-50q-48 -5 -70 -65l-316 -797h-124l-309 789q-15 39 -27 51.5t-45 19.5v52h285v-50q-49 -5 -49 -32q0 -15 6 -27l223 -580l221 576q0 2 1 7t1 7q0 44 -65 47l-1 52h269z" />
    <glyph glyph-name="c119" unicode="w" horiz-adv-x="1293" 
d="M1321 912v-52q-28 -4 -40 -15q-12 -10 -25 -44l-297 -801h-123l-182 510l-179 -510h-122l-302 789q-23 60 -74 71v52h281v-52q-47 -5 -47 -30q0 -13 6 -25l211 -604l157 448l-40 115q-23 67 -41 82q-14 8 -35 14v52h269v-52q-43 -3 -43 -30q0 -5 4 -21l215 -608l200 588
q4 25 4 28q0 38 -65 41v54h268z" />
    <glyph glyph-name="c120" unicode="x" horiz-adv-x="846" 
d="M828 912v-52q-31 -4 -47 -12q-22 -13 -47 -53l-215 -313l264 -377q20 -29 33 -38t49 -18v-49h-326v49q64 10 64 29q0 5 -10 23l-200 301l-187 -299q-9 -12 -9 -19q0 -17 29 -24l21 -9l8 -2l-1 -49h-284v49q57 13 82 54l266 389l-215 311q-33 47 -90 57v52h324v-52l-11 -2
q-39 -7 -39 -28q0 -11 9 -23l145 -235l148 231q8 8 8 23q0 20 -25 26l-18 6l-6 2l-1 52h281z" />
    <glyph glyph-name="c121" unicode="y" horiz-adv-x="860" 
d="M895 912v-50q-30 -12 -41 -23t-24 -44l-346 -920q-58 -152 -152 -230.5t-219 -78.5q-53 0 -99 14l1 186h49q0 -1 1.5 -5t2.5 -5q8 -22 12 -31q8 -14 27.5 -24t38.5 -10q88 0 161 106q68 102 68 178q0 19 -5 27l-317 789q-16 35 -37 53q-12 9 -33 16v52h285v-52
q-43 -8 -43 -32q0 -10 6 -25l240 -612l221 596q7 14 7 26q0 18 -16 31t-40 14v54h252z" />
    <glyph glyph-name="c122" unicode="z" horiz-adv-x="752" 
d="M668 223h53v-223h-697v111l464 692h-281q-37 0 -57 -19t-33 -69h-52l1 196h614v-104l-461 -688h321q109 0 128 104z" />
    <glyph glyph-name="c123" unicode="{" horiz-adv-x="983" 
d="M226 510q83 3 119 48.5t36 148.5v346q0 121 24.5 185t85.5 90t179 28h29v-39q-90 0 -125 -41q-42 -43 -42 -194v-293q0 -159 -36 -219q-37 -65 -133 -80q93 -16 133 -80q36 -57 36 -219v-294q0 -85 9 -126.5t33 -67.5q35 -41 125 -41v-39h-29q-119 2 -180 28
q-60 26 -84.5 90t-24.5 185v347q0 103 -36 148t-119 48v41z" />
    <glyph glyph-name="c124" unicode="|" horiz-adv-x="977" 
d="M391 1534h183v-2063h-183v2063z" />
    <glyph glyph-name="c125" unicode="}" horiz-adv-x="983" 
d="M762 510v-41q-82 -3 -118 -48q-35 -46 -35 -148v-347q0 -122 -25 -185.5t-86 -89.5t-180 -28h-29v39q51 0 78 9t47 32q25 25 34 67t9 127v294q0 92 7.5 139t27.5 80q39 64 133 80q-93 15 -133 80q-20 31 -27.5 78.5t-7.5 140.5v293q0 84 -9 125t-34 69q-35 41 -125 41v39
h29q118 -2 179.5 -28t86.5 -90q25 -63 25 -185v-346q0 -103 35 -148q36 -46 118 -49z" />
    <glyph glyph-name="c126" unicode="~" horiz-adv-x="1108" 
d="M1000 1305l69 -88q-56 -101 -130 -156t-154 -55q-42 0 -76 8q-57 15 -191 87q-128 69 -200 69q-63 0 -117 -52q-41 -38 -94 -127l-70 91l12 18q61 94 113 141q69 64 162 64q38 0 72 -10q47 -11 147 -59l109 -54q76 -41 139 -41q110 0 209 164z" />
    <glyph glyph-name="c160" unicode="&#xa0;" horiz-adv-x="512" 
 />
    <glyph glyph-name="c162" unicode="&#xa2;" horiz-adv-x="912" 
d="M328 -226h-72l74 224q-83 36 -121 74q-71 69 -108 168q-39 99 -39 213q0 151 62 275t170.5 195t242.5 71q55 0 123 -16l47 143h78l-60 -170q74 -38 104.5 -76t30.5 -92q0 -101 -104 -101q-79 0 -102 64l-205 -609q51 -20 110 -20q76 0 133 29q29 17 50 32q46 40 125 148
l30 -23q-38 -83 -65 -125t-70 -84q-122 -118 -301 -118q-43 0 -65 4zM389 174l234 695q-50 59 -119 59t-132 -54.5t-100.5 -145.5t-37.5 -193q0 -126 51 -230q20 -41 41 -67q20 -25 63 -64z" />
    <glyph glyph-name="c163" unicode="&#xa3;" horiz-adv-x="1026" 
d="M768 688h-256q0 -150 -16 -264q-14 -80 -51 -201q53 -27 145 -47t160 -20q124 0 196 78q19 18 31 20l14 -26q-6 -63 -43.5 -121t-94.5 -92q-57 -36 -118 -36q-81 0 -167 44q-56 25 -170 106q-43 -60 -80 -92q-72 -53 -150 -53q-69 0 -107 33t-38 92q0 76 52.5 124
t135.5 48q50 0 103 -15q12 -4 18 -4l2 23q6 64 6 102q0 72 -6 146q-7 91 -16 155h-213l18 86h193q-13 75 -13 181q0 152 42 262q42 111 122 169t191 58q75 0 135.5 -26.5t94.5 -74t34 -108.5q0 -49 -22 -78q-21 -28 -58 -28q-34 0 -55 19q-21 20 -21 52v50q0 28 -2 45
q-2 12 -6 41q-2 4 -2 6q-9 20 -35 32q-26 13 -59 13q-67 0 -106 -30t-55.5 -99t-16.5 -189q0 -103 10 -204q2 -37 10 -91h279zM320 176l-23 11q-68 28 -100 28q-48 0 -81.5 -28t-33.5 -68q0 -78 86 -78q46 0 82 32t70 103z" />
    <glyph glyph-name="c164" unicode="&#xa4;" horiz-adv-x="1219" 
d="M1164 428l-82 -82l-205 205q-81 -50 -130.5 -66t-125.5 -16q-78 0 -130 17t-124 65l-205 -205l-82 82l206 205q-52 80 -67.5 126t-15.5 118q0 81 16 132q17 51 67 128l-206 207l82 80l205 -205l16 11l17 11.5t14 8.5q101 54 207 54q67 0 125 -20q61 -18 131 -65l205 205
l82 -80l-205 -207q9 -12 29 -47q55 -104 55 -207q0 -63 -20 -121q-19 -59 -64 -129zM627 1194q-83 0 -155 -41q-71 -42 -113 -113t-42 -153q0 -78 43 -148.5t113 -112.5q71 -43 150 -43q80 0 150.5 42t113.5 112q41 70 41 150q0 81 -41.5 152t-111 113t-148.5 42z" />
    <glyph glyph-name="c165" unicode="&#xa5;" horiz-adv-x="1196" 
d="M1196 1350v-47q-46 -8 -69.5 -25t-46.5 -59l-191 -359h252v-86l-303 1l-100 -193h401l-2 -86h-451l-4 -361q0 -51 12 -67.5t54 -22.5v-45h-285v45q41 12 57.5 35t16.5 70l-2 346h-445v86h394l-109 192h-283l2 86h228l-199 351q-33 59 -56 78q-22 18 -67 24v37h312v-47
q-54 0 -54 -33q0 -18 13 -39l350 -606l327 604q9 11 9 27q0 38 -49 47v47h288z" />
    <glyph glyph-name="c166" unicode="&#xa6;" horiz-adv-x="2048" 
d="M0 530h2048v-102h-2048v102z" />
    <glyph glyph-name="c167" unicode="&#xa7;" 
d="M611 254q88 -72 136 -151t48 -150q0 -112 -85.5 -185t-217.5 -73q-115 0 -197 60t-82 144q0 53 32 87q31 35 79 35q42 0 69 -27q27 -26 27 -66q0 -20 -10 -41t-23 -31l-22 -14q-5 0 -8 -12q-4 -8 -4 -15q0 -19 26 -38q53 -35 121 -35q75 0 123.5 42.5t48.5 108.5t-43 124
q-38 52 -129 116q-160 118 -195 148q-157 138 -157 299q0 67 32 124.5t87 91.5t118 34q19 0 35 -4l-12 12q-82 77 -98 94.5t-37 48.5q-45 67 -45 152q0 111 80 180q81 70 208 70q74 0 133.5 -26.5t93.5 -72.5t34 -102q0 -50 -30 -82q-29 -33 -73 -33q-39 0 -68 26
q-28 26 -28 62q0 43 45 80q18 16 18 33q0 28 -36.5 49t-88.5 21q-73 0 -121.5 -41t-48.5 -105q0 -45 29 -90q20 -31 52 -62q32 -30 120 -100q127 -99 196 -169.5t99 -134.5q31 -64 31 -134q0 -104 -68 -176q-67 -72 -166 -72h-28zM619 301q63 0 102 39q40 39 40 101
q0 44 -28 88t-102 114q-146 138 -235 138q-59 0 -97 -41q-39 -40 -39 -101q0 -45 29 -92t94 -108q149 -138 236 -138z" />
    <glyph glyph-name="c168" unicode="&#xa8;" horiz-adv-x="1186" 
d="M80 0v60q43 4 58.5 23t15.5 65v1071q0 47 -16 66t-58 22v59h1012v-233h-55q-14 64 -38.5 84t-88.5 20h-588v-401h495q44 0 64 12t31 45q0 2 4 10h51v-266h-51q-11 35 -19 43q-23 27 -80 27h-495v-578h639q65 0 95 28t36 93h51v-250h-1063zM416 1671q50 0 83.5 -33.5
t33.5 -84.5q0 -50 -34 -84.5t-83 -34.5t-84 35q-34 35 -34 84q0 48 34 83t84 35zM832 1669q49 0 84 -34.5t35 -83.5t-35 -84t-84 -35q-48 0 -82.5 35t-34.5 84t33.5 83.5t83.5 34.5z" />
    <glyph glyph-name="c169" unicode="&#xa9;" horiz-adv-x="1956" 
d="M977 -37q-221 0 -403.5 102t-286.5 280q-104 179 -104 395t106 399t289 289t399 106q218 0 402 -106t290 -289q107 -183 107 -399t-105 -394t-289 -280.5t-405 -102.5zM977 61q193 0 354 90.5t254 247t93 343.5q0 190 -93.5 349.5t-255 252t-352.5 92.5
q-189 0 -349.5 -92.5t-253.5 -252t-93 -349.5q0 -188 92 -344t252 -246.5t352 -90.5zM1297 1071l-115 -114l-31 30q13 21 13 33q0 40 -57.5 69t-137.5 29q-99 0 -173.5 -39.5t-114.5 -113t-40 -170.5q0 -116 60 -218q59 -101 159 -160q101 -60 217 -60q124 0 140 88h37v-160
q-82 -14 -191 -14q-150 0 -276 68.5t-199.5 187t-73.5 258.5q0 118 57.5 214.5t159.5 150.5t228 54q106 0 186.5 -31.5t151.5 -101.5z" />
    <glyph glyph-name="c170" unicode="&#xaa;" horiz-adv-x="1413" 
d="M1086 1051v160q0 57 -15 76.5t-59 19.5v59h315v-59q-36 -3 -55 -17q-18 -15 -18 -79v-1051q0 -58 14 -78q14 -19 59 -22v-60h-315v60q44 0 60 20q14 19 14 76v698l-733 -854h-273v60q45 3 59.5 21.5t14.5 76.5v1053q0 61 -19 79q-16 14 -55 17v59h316v-59
q-44 0 -59 -19.5t-15 -76.5v-1047zM807 1379h-61l-312 190q-67 41 -67 92q0 25 18.5 42.5t46.5 17.5q48 0 97 -52z" />
    <glyph glyph-name="c171" unicode="&#xab;" horiz-adv-x="914" 
d="M386 154l-244 301l243 301h128l-242 -301l242 -301h-127zM658 154l-244 301l244 301h129l-244 -301l244 -301h-129z" />
    <glyph glyph-name="c172" unicode="&#xac;" horiz-adv-x="1241" 
d="M983 213v399h-878v154h1031v-553h-153z" />
    <glyph glyph-name="c173" unicode="&#xad;" 
d="M0 530h1024v-102h-1024v102z" />
    <glyph glyph-name="c174" unicode="&#xae;" horiz-adv-x="1956" 
d="M977 -37q-221 0 -403.5 102t-286.5 280q-104 179 -104 395t106 399t289 289t399 106q218 0 402 -106t290 -289q107 -183 107 -399t-105 -394t-289 -280.5t-405 -102.5zM977 61q193 0 354 90.5t254 247t93 343.5q0 190 -93.5 349.5t-255 252t-352.5 92.5
q-189 0 -349.5 -92.5t-253.5 -252t-93 -349.5q0 -188 92 -344t252 -246.5t352 -90.5zM1051 727l246 -331q23 -34 65 -37v-37h-151l-293 401h-113v-295q0 -43 16 -57q10 -10 33 -12v-37h-209v37q29 3 40 15q10 13 10 44v703q0 57 -50 57v39h389q139 0 211 -61.5t72 -178.5
q0 -215 -266 -250zM805 1131v-326h178q107 0 163 45t56 129q0 72 -47 112t-133 40h-217z" />
    <glyph glyph-name="c176" unicode="&#xb0;" 
d="M512 1383q84 0 154.5 -41.5t111.5 -112t41 -154.5q0 -127 -89.5 -217t-217.5 -90q-84 0 -154.5 41t-111.5 111.5t-41 154.5t41.5 154.5t111.5 112t154 41.5zM512 1299q-92 0 -157 -66q-66 -65 -66 -158q0 -92 65.5 -157.5t157.5 -65.5q61 0 112 30t81 81.5t30 111.5
q0 62 -30 113t-81 82q-52 29 -112 29z" />
    <glyph glyph-name="c177" unicode="&#xb1;" horiz-adv-x="1125" 
d="M21 835h485v486h112v-486h486v-112h-486v-485h-112v485h-485v112zM1104 0h-1083v112h1083v-112z" />
    <glyph glyph-name="c178" unicode="&#xb2;" horiz-adv-x="1125" 
d="M59 0v112h1018v-112h-1018zM59 711v127l1018 471v-127l-887 -408l887 -407v-127z" />
    <glyph glyph-name="c179" unicode="&#xb3;" horiz-adv-x="1125" 
d="M1077 112v-112h-1018v112h1018zM1077 838v-127l-1018 -471v127l887 407l-887 408v127z" />
    <glyph glyph-name="c180" unicode="&#xb4;" horiz-adv-x="981" 
d="M319 1047l279 291q49 51 97 51q27 0 46 -16.5t19 -41.5q0 -53 -68 -94l-311 -190h-62z" />
    <glyph glyph-name="c182" unicode="&#xb6;" horiz-adv-x="928" 
d="M764 1356v-90h-84v-1688h-92v1688h-154v-1688h-92v897q-96 21 -155 64q-85 57 -136 160q-51 104 -51 219q0 125 56 225q56 101 155.5 157t222.5 56h330z" />
    <glyph glyph-name="c183" unicode="&#xb7;" horiz-adv-x="842" 
d="M98 1002l6 8l41 47q63 80 82 141h-10q-11 0 -39 13q-64 35 -64 94q0 44 31 75t74 31q55 0 84 -33.5t29 -97.5q0 -85 -53 -170q-39 -60 -53 -76q-8 -7 -62 -65l-12 -12zM449 1002l4 8l45 53q53 62 80 135h-13q-11 0 -38 13q-62 35 -62 94q0 44 30.5 75t74.5 31
q54 0 82 -33.5t28 -97.5q0 -84 -51 -170q-32 -50 -55 -76t-62 -65l-10 -12z" />
    <glyph glyph-name="c184" unicode="&#xb8;" horiz-adv-x="971" 
d="M908 469h-676q6 -85 33.5 -153.5t76.5 -119.5t112 -78.5t138 -27.5q165 0 227 133h50v-182q-32 -16 -99 -35q-89 -24 -124.5 -30t-90.5 -6q-228 0 -362 149q-61 67 -95 160q-36 94 -36 188q0 129 58 238q59 109 159.5 172t218.5 63q120 0 213.5 -57.5t144.5 -162.5
q52 -105 52 -238v-13zM730 579q-5 50 -14 88q-21 74 -75 114t-137 40q-104 0 -174 -64q-69 -64 -88 -178h488zM287 1366q50 0 83.5 -33.5t33.5 -85.5q0 -49 -34 -84q-34 -34 -83 -34t-84 35q-34 35 -34 83q0 49 34 84t84 35zM703 1364q49 0 84 -34.5t35 -84.5q0 -49 -36 -84
q-35 -34 -83 -34q-47 0 -82 35t-35 83q0 49 34 84t83 35z" />
    <glyph glyph-name="c185" unicode="&#xb9;" horiz-adv-x="2048" 
d="M78 0v60q43 4 58.5 23t15.5 65v1085q0 38 -16 54q-17 17 -58 20v59h254l754 -661v499q0 45 -4 59q-3 14 -19 27q-19 14 -49 17v59h283v-59q-43 -5 -58.5 -23t-15.5 -65v-1071q0 -46 15.5 -65t58.5 -23v-60h-283v60q30 2 49 16q16 12 19.5 26.5t3.5 59.5v301l-797 701
v-1002q0 -44 3.5 -58t19.5 -28q18 -14 49 -16v-60h-283zM1977 94h-504v129h504v-129zM1702 402q-89 0 -157.5 39t-105 111.5t-36.5 166.5q0 95 37.5 168t105.5 113.5t156 40.5q90 0 158 -40t106 -114q37 -73 37 -168t-37 -167t-106 -111t-158 -39zM1704 510q77 0 119 56
q43 55 43 155q0 99 -43 153t-121 54q-76 0 -119 -55q-42 -54 -42 -152q0 -101 42 -156q43 -55 121 -55z" />
    <glyph glyph-name="c186" unicode="&#xba;" horiz-adv-x="1075" 
d="M934 912v-783q0 -40 15 -55t63 -25v-48h-242v96q-93 -70 -160 -96.5t-151 -26.5q-107 0 -184.5 41t-118.5 118t-41 183v475q0 37 -16 52q-15 16 -54 17v52h240v-559q0 -111 33 -166q24 -38 71 -62t99 -24q108 0 213 84q30 23 69 57v549q0 29 -20.5 48.5t-52.5 20.5v52
h237zM578 1082h-62l-261 153q-68 40 -68 92q0 26 18 43t45 17q54 0 98 -51z" />
    <glyph glyph-name="c187" unicode="&#xbb;" horiz-adv-x="914" 
d="M256 154h-129l244 301l-244 301h129l244 -301zM529 154h-127l241 301l-241 301h127l243 -301z" />
    <glyph glyph-name="c191" unicode="&#xbf;" horiz-adv-x="977" 
d="M205 1379h53l228 -199l225 199h55l-225 -334h-113z" />
    <glyph glyph-name="c192" unicode="&#xc0;" horiz-adv-x="1186" 
d="M803 549h-471l-162 -416q-10 -21 -10 -32q0 -31 45 -39q1 0 4 -1q4 -1 6 -1v-60h-252v60q23 4 36.5 19.5t27.5 51.5l500 1235h125l512 -1247q21 -52 51 -59v-60h-282v60q53 5 53 28q0 14 -12 45zM756 671l-193 478l-184 -478h377z" />
    <glyph glyph-name="c192" unicode="&#x410;" horiz-adv-x="1186" 
d="M803 549h-471l-162 -416q-10 -21 -10 -32q0 -31 45 -39q1 0 4 -1q4 -1 6 -1v-60h-252v60q23 4 36.5 19.5t27.5 51.5l500 1235h125l512 -1247q21 -52 51 -59v-60h-282v60q53 5 53 28q0 14 -12 45zM756 671l-193 478l-184 -478h377z" />
    <glyph glyph-name="c193" unicode="&#xc1;" horiz-adv-x="1174" 
d="M76 1366h920v-252h-52q-1 67 -32 95q-30 28 -99 28h-495v-282q156 -48 316 -115q125 -54 216 -109q92 -56 149 -115.5t84 -125.5t27 -144q0 -150 -114 -247q-64 -55 -138.5 -77t-199.5 -22h-582v60q43 4 58.5 23t15.5 65v1071q0 47 -15.5 65t-58.5 23v59zM318 821v-709
h16l113 -2h49q137 0 202 10q66 10 117 36q50 27 85 87q34 61 34 122q0 74 -44 143t-123 119q-95 61 -220 115t-229 79z" />
    <glyph glyph-name="c193" unicode="&#x411;" horiz-adv-x="1174" 
d="M76 1366h920v-252h-52q-1 67 -32 95q-30 28 -99 28h-495v-282q156 -48 316 -115q125 -54 216 -109q92 -56 149 -115.5t84 -125.5t27 -144q0 -150 -114 -247q-64 -55 -138.5 -77t-199.5 -22h-582v60q43 4 58.5 23t15.5 65v1071q0 47 -15.5 65t-58.5 23v59zM318 821v-709
h16l113 -2h49q137 0 202 10q66 10 117 36q50 27 85 87q34 61 34 122q0 74 -44 143t-123 119q-95 61 -220 115t-229 79z" />
    <glyph glyph-name="c194" unicode="&#xc2;" horiz-adv-x="1286" 
d="M86 1366h586q217 0 334 -84t117 -241q0 -93 -50 -160q-50 -66 -161 -119q67 -18 98 -31q67 -26 115 -72.5t74 -111.5q24 -66 24 -143q0 -84 -28 -156q-29 -71 -81 -119q-77 -71 -194.5 -100t-329.5 -29h-504v60q68 5 68 65v1110q0 65 -68 72v59zM322 824h360
q260 0 260 204q0 64 -30 112t-85.5 73.5t-129.5 25.5h-375v-415zM322 125h332q184 0 282 74q96 73 96 211q0 81 -44 147.5t-122 103.5q-77 38 -174 38h-370v-574z" />
    <glyph glyph-name="c194" unicode="&#x412;" horiz-adv-x="1286" 
d="M86 1366h586q217 0 334 -84t117 -241q0 -93 -50 -160q-50 -66 -161 -119q67 -18 98 -31q67 -26 115 -72.5t74 -111.5q24 -66 24 -143q0 -84 -28 -156q-29 -71 -81 -119q-77 -71 -194.5 -100t-329.5 -29h-504v60q68 5 68 65v1110q0 65 -68 72v59zM322 824h360
q260 0 260 204q0 64 -30 112t-85.5 73.5t-129.5 25.5h-375v-415zM322 125h332q184 0 282 74q96 73 96 211q0 81 -44 147.5t-122 103.5q-77 38 -174 38h-370v-574z" />
    <glyph glyph-name="c195" unicode="&#xc3;" horiz-adv-x="928" 
d="M76 0v60q43 4 58.5 23t15.5 65v1071q0 47 -15.5 65t-58.5 23v59h842v-252h-51q-2 67 -32.5 95t-99.5 28h-417v-1075q0 -45 3.5 -58.5t20.5 -27.5t49 -16v-60h-315z" />
    <glyph glyph-name="c195" unicode="&#x413;" horiz-adv-x="928" 
d="M76 0v60q43 4 58.5 23t15.5 65v1071q0 47 -15.5 65t-58.5 23v59h842v-252h-51q-2 67 -32.5 95t-99.5 28h-417v-1075q0 -45 3.5 -58.5t20.5 -27.5t49 -16v-60h-315z" />
    <glyph glyph-name="c196" unicode="&#xc4;" horiz-adv-x="1372" 
d="M1250 -180v16q0 98 -35 131q-40 33 -115 33h-879q-71 0 -110 -31q-22 -17 -31 -45q-8 -28 -8 -88v-16h-57v303h96q95 110 172 285q49 117 76 253q26 137 26 281q0 76 -12 154.5t-31 120.5q-13 26 -35 51q-16 20 -28 26t-41 11l-12 2v59h1024v-59q-49 -12 -61.5 -28
t-12.5 -66v-1090h131v-303h-57zM1006 1235h-531q55 -128 55 -305q0 -267 -77 -479q-24 -60 -74 -160q-50 -102 -100 -168h727v1112z" />
    <glyph glyph-name="c196" unicode="&#x414;" horiz-adv-x="1372" 
d="M1250 -180v16q0 98 -35 131q-40 33 -115 33h-879q-71 0 -110 -31q-22 -17 -31 -45q-8 -28 -8 -88v-16h-57v303h96q95 110 172 285q49 117 76 253q26 137 26 281q0 76 -12 154.5t-31 120.5q-13 26 -35 51q-16 20 -28 26t-41 11l-12 2v59h1024v-59q-49 -12 -61.5 -28
t-12.5 -66v-1090h131v-303h-57zM1006 1235h-531q55 -128 55 -305q0 -267 -77 -479q-24 -60 -74 -160q-50 -102 -100 -168h727v1112z" />
    <glyph glyph-name="c197" unicode="&#xc5;" horiz-adv-x="1186" 
d="M80 0v60q43 4 58.5 23t15.5 65v1071q0 47 -16 66t-58 22v59h1012v-233h-55q-14 64 -38.5 84t-88.5 20h-588v-401h495q44 0 64 12t31 45q0 2 4 10h51v-266h-51q-11 35 -19 43q-23 27 -80 27h-495v-578h639q65 0 95 28t36 93h51v-250h-1063z" />
    <glyph glyph-name="c197" unicode="&#x415;" horiz-adv-x="1186" 
d="M80 0v60q43 4 58.5 23t15.5 65v1071q0 47 -16 66t-58 22v59h1012v-233h-55q-14 64 -38.5 84t-88.5 20h-588v-401h495q44 0 64 12t31 45q0 2 4 10h51v-266h-51q-11 35 -19 43q-23 27 -80 27h-495v-578h639q65 0 95 28t36 93h51v-250h-1063z" />
    <glyph glyph-name="c198" unicode="&#xc6;" horiz-adv-x="1839" 
d="M1071 1366v-59q-41 -6 -54 -23q-13 -16 -13 -63v-502l424 526q16 27 16 33q0 16 -35 25q-16 4 -20 4h-6v59h368v-61q-38 -3 -49 -6q-10 -2 -41 -21q-35 -23 -49 -37l-47 -51l-275 -301l435 -762q22 -38 40 -52t48 -15v-60h-320v60q58 3 58 26q0 7 -7 19q-8 10 -8 14
l-360 674l-172 -195v-438q0 -57 13.5 -78t53.5 -22v-60h-303v60q40 1 55 22q13 21 13 78v438l-172 195l-361 -674v0l-8 -14q-8 -12 -8 -19q0 -23 59 -26v-60h-321v60q31 1 50 15.5t40 51.5l438 762l-280 301l-45 51q-24 26 -63 45t-68 19h-9v61h369v-59q-68 -4 -68 -27
q0 -9 11 -18q11 -16 12 -17l424 -526v502q0 46 -13 63t-55 23v59h303z" />
    <glyph glyph-name="c198" unicode="&#x416;" horiz-adv-x="1839" 
d="M1071 1366v-59q-41 -6 -54 -23q-13 -16 -13 -63v-502l424 526q16 27 16 33q0 16 -35 25q-16 4 -20 4h-6v59h368v-61q-38 -3 -49 -6q-10 -2 -41 -21q-35 -23 -49 -37l-47 -51l-275 -301l435 -762q22 -38 40 -52t48 -15v-60h-320v60q58 3 58 26q0 7 -7 19q-8 10 -8 14
l-360 674l-172 -195v-438q0 -57 13.5 -78t53.5 -22v-60h-303v60q40 1 55 22q13 21 13 78v438l-172 195l-361 -674v0l-8 -14q-8 -12 -8 -19q0 -23 59 -26v-60h-321v60q31 1 50 15.5t40 51.5l438 762l-280 301l-45 51q-24 26 -63 45t-68 19h-9v61h369v-59q-68 -4 -68 -27
q0 -9 11 -18q11 -16 12 -17l424 -526v502q0 46 -13 63t-55 23v59h303z" />
    <glyph glyph-name="c199" unicode="&#xc7;" horiz-adv-x="1260" 
d="M287 996l-127 192q48 48 115 94q69 48 121 65q90 37 225 37q134 0 241 -43.5t166 -121.5q60 -79 60 -178q0 -108 -76 -190.5t-180 -90.5q101 -23 157 -55q77 -43 121.5 -123.5t44.5 -175.5q0 -126 -66.5 -227t-184 -157.5t-263.5 -56.5q-168 0 -305 70q-43 23 -87 54
q-45 32 -82.5 66t-59.5 66l131 189l57 -35q-16 -43 -16 -68q0 -50 39 -96q52 -58 134 -92.5t167 -34.5q99 0 181.5 42.5t128.5 116.5q47 75 47 167q0 84 -45 150q-44 66 -125 102q-82 37 -185 37h-180v119h186q89 -1 152 26q64 26 97.5 76t33.5 121q0 66 -39 119
q-38 54 -107 84q-68 30 -151 30q-121 0 -201 -54t-80 -136q0 -22 10 -47z" />
    <glyph glyph-name="c199" unicode="&#x417;" horiz-adv-x="1260" 
d="M287 996l-127 192q48 48 115 94q69 48 121 65q90 37 225 37q134 0 241 -43.5t166 -121.5q60 -79 60 -178q0 -108 -76 -190.5t-180 -90.5q101 -23 157 -55q77 -43 121.5 -123.5t44.5 -175.5q0 -126 -66.5 -227t-184 -157.5t-263.5 -56.5q-168 0 -305 70q-43 23 -87 54
q-45 32 -82.5 66t-59.5 66l131 189l57 -35q-16 -43 -16 -68q0 -50 39 -96q52 -58 134 -92.5t167 -34.5q99 0 181.5 42.5t128.5 116.5q47 75 47 167q0 84 -45 150q-44 66 -125 102q-82 37 -185 37h-180v119h186q89 -1 152 26q64 26 97.5 76t33.5 121q0 66 -39 119
q-38 54 -107 84q-68 30 -151 30q-121 0 -201 -54t-80 -136q0 -22 10 -47z" />
    <glyph glyph-name="c200" unicode="&#xc8;" horiz-adv-x="1413" 
d="M1086 1051v160q0 57 -15 76.5t-59 19.5v59h315v-59q-36 -3 -55 -17q-18 -15 -18 -79v-1051q0 -58 14 -78q14 -19 59 -22v-60h-315v60q44 0 60 20q14 19 14 76v715l-733 -871h-273v60q45 3 59.5 21.5t14.5 76.5v1053q0 61 -19 79q-16 14 -55 17v59h316v-59
q-44 0 -59 -19.5t-15 -76.5v-1047z" />
    <glyph glyph-name="c200" unicode="&#x418;" horiz-adv-x="1413" 
d="M1086 1051v160q0 57 -15 76.5t-59 19.5v59h315v-59q-36 -3 -55 -17q-18 -15 -18 -79v-1051q0 -58 14 -78q14 -19 59 -22v-60h-315v60q44 0 60 20q14 19 14 76v715l-733 -871h-273v60q45 3 59.5 21.5t14.5 76.5v1053q0 61 -19 79q-16 14 -55 17v59h316v-59
q-44 0 -59 -19.5t-15 -76.5v-1047z" />
    <glyph glyph-name="c201" unicode="&#xc9;" horiz-adv-x="1413" 
d="M1086 1051v160q0 57 -15 76.5t-59 19.5v59h315v-59q-36 -3 -55 -17q-18 -15 -18 -79v-1051q0 -58 14 -78q14 -19 59 -22v-60h-315v60q44 0 60 20q14 19 14 76v698l-733 -854h-273v60q45 3 59.5 21.5t14.5 76.5v1053q0 61 -19 79q-16 14 -55 17v59h316v-59
q-44 0 -59 -19.5t-15 -76.5v-1047zM893 1727l37 45l154 -129q-43 -106 -144 -170q-100 -64 -227 -64t-227 63.5t-144 170.5l152 129l37 -45q-35 -32 -35 -70q0 -56 63 -95q64 -41 154 -41q57 0 107 18.5t79 50t29 67.5q0 38 -35 70z" />
    <glyph glyph-name="c201" unicode="&#x419;" horiz-adv-x="1413" 
d="M1086 1051v160q0 57 -15 76.5t-59 19.5v59h315v-59q-36 -3 -55 -17q-18 -15 -18 -79v-1051q0 -58 14 -78q14 -19 59 -22v-60h-315v60q44 0 60 20q14 19 14 76v698l-733 -854h-273v60q45 3 59.5 21.5t14.5 76.5v1053q0 61 -19 79q-16 14 -55 17v59h316v-59
q-44 0 -59 -19.5t-15 -76.5v-1047zM893 1727l37 45l154 -129q-43 -106 -144 -170q-100 -64 -227 -64t-227 63.5t-144 170.5l152 129l37 -45q-35 -32 -35 -70q0 -56 63 -95q64 -41 154 -41q57 0 107 18.5t79 50t29 67.5q0 38 -35 70z" />
    <glyph glyph-name="c202" unicode="&#xca;" horiz-adv-x="1295" 
d="M90 0v60q43 4 58.5 23t15.5 65v1071q0 46 -15.5 64.5t-58.5 23.5v59h316v-59q-32 -3 -51 -17q-16 -12 -19.5 -26t-3.5 -60v-454l545 502l14 14t6 12q0 9 -16.5 17t-38.5 8q-4 0 -8 -2v65h379v-65q-73 -5 -125 -49l-371 -322l463 -788q30 -51 47 -64q15 -10 47 -18v-60
h-330v60h11q49 3 49 26q0 3 -8 19l-9 16l-399 707l-256 -230v-436q0 -44 3.5 -58t19.5 -28q19 -14 51 -16v-60h-316z" />
    <glyph glyph-name="c202" unicode="&#x41a;" horiz-adv-x="1295" 
d="M90 0v60q43 4 58.5 23t15.5 65v1071q0 46 -15.5 64.5t-58.5 23.5v59h316v-59q-32 -3 -51 -17q-16 -12 -19.5 -26t-3.5 -60v-454l545 502l14 14t6 12q0 9 -16.5 17t-38.5 8q-4 0 -8 -2v65h379v-65q-73 -5 -125 -49l-371 -322l463 -788q30 -51 47 -64q15 -10 47 -18v-60
h-330v60h11q49 3 49 26q0 3 -8 19l-9 16l-399 707l-256 -230v-436q0 -44 3.5 -58t19.5 -28q19 -14 51 -16v-60h-316z" />
    <glyph glyph-name="c203" unicode="&#xcb;" horiz-adv-x="1071" 
d="M623 1366l422 -1253q11 -32 21 -42q11 -11 38 -15v-56h-293v56l10 2q39 8 39 36q0 13 -4 21l-346 1020l-340 -995q-4 -11 -4 -31t11 -31q10 -10 42 -22v-56h-256v56q46 10 70 75l428 1235h162z" />
    <glyph glyph-name="c203" unicode="&#x41b;" horiz-adv-x="1071" 
d="M623 1366l422 -1253q11 -32 21 -42q11 -11 38 -15v-56h-293v56l10 2q39 8 39 36q0 13 -4 21l-346 1020l-340 -995q-4 -11 -4 -31t11 -31q10 -10 42 -22v-56h-256v56q46 10 70 75l428 1235h162z" />
    <glyph glyph-name="c204" unicode="&#xcc;" horiz-adv-x="1493" 
d="M246 0h-261v60q23 5 37 14q17 11 23 22t10 39l197 1098q4 12 4 27q0 36 -41 45l-8 2v59h229l318 -778l295 778h237v-59q-55 -12 -55 -45v0q1 0 8 -47l191 -1084q6 -34 19 -48q14 -14 48 -23v-60h-295v60q56 3 56 34q0 17 -4 33l-174 987l-302 -796h-83l-324 788
l-179 -983q-2 -10 -2 -26q0 -29 56 -37v-60z" />
    <glyph glyph-name="c204" unicode="&#x41c;" horiz-adv-x="1493" 
d="M246 0h-261v60q23 5 37 14q17 11 23 22t10 39l197 1098q4 12 4 27q0 36 -41 45l-8 2v59h229l318 -778l295 778h237v-59q-55 -12 -55 -45v0q1 0 8 -47l191 -1084q6 -34 19 -48q14 -14 48 -23v-60h-295v60q56 3 56 34q0 17 -4 33l-174 987l-302 -796h-83l-324 788
l-179 -983q-2 -10 -2 -26q0 -29 56 -37v-60z" />
    <glyph glyph-name="c205" unicode="&#xcd;" horiz-adv-x="1377" 
d="M975 1366h315v-59q-42 -5 -57.5 -23.5t-15.5 -64.5v-1071q0 -46 15.5 -65t57.5 -23v-60h-315v60q30 2 49 16q18 12 21.5 26.5t3.5 59.5v545h-723v-545q0 -43 4 -57t20 -29q17 -14 50 -16v-60h-316v60q43 4 58 23q16 19 16 65v1071q0 46 -16 65q-15 18 -58 23v59h316v-59
q-30 -3 -50 -17q-15 -13 -19.5 -27.5t-4.5 -58.5v-378h723v378q0 46 -4 59q-4 14 -21 27q-16 14 -49 17v59z" />
    <glyph glyph-name="c205" unicode="&#x41d;" horiz-adv-x="1377" 
d="M975 1366h315v-59q-42 -5 -57.5 -23.5t-15.5 -64.5v-1071q0 -46 15.5 -65t57.5 -23v-60h-315v60q30 2 49 16q18 12 21.5 26.5t3.5 59.5v545h-723v-545q0 -43 4 -57t20 -29q17 -14 50 -16v-60h-316v60q43 4 58 23q16 19 16 65v1071q0 46 -16 65q-15 18 -58 23v59h316v-59
q-30 -3 -50 -17q-15 -13 -19.5 -27.5t-4.5 -58.5v-378h723v378q0 46 -4 59q-4 14 -21 27q-16 14 -49 17v59z" />
    <glyph glyph-name="c206" unicode="&#xce;" horiz-adv-x="1530" 
d="M1469 674q0 -206 -89 -367t-249 -250.5t-363 -89.5q-204 0 -364 89.5t-248.5 250.5t-88.5 367q0 205 88.5 366.5t248.5 251t364 89.5q154 0 283.5 -51t222.5 -145t145 -225q50 -131 50 -286zM1272 674q0 133 -35 240t-101 183t-160 117q-93 40 -208 40t-209 -40
q-93 -41 -160 -117q-66 -76 -101.5 -184t-35.5 -239q0 -130 35.5 -238t102.5 -184.5t160 -117t208 -40.5t208 40.5t159.5 117t101.5 183.5t35 239z" />
    <glyph glyph-name="c206" unicode="&#x41e;" horiz-adv-x="1530" 
d="M1469 674q0 -206 -89 -367t-249 -250.5t-363 -89.5q-204 0 -364 89.5t-248.5 250.5t-88.5 367q0 205 88.5 366.5t248.5 251t364 89.5q154 0 283.5 -51t222.5 -145t145 -225q50 -131 50 -286zM1272 674q0 133 -35 240t-101 183t-160 117q-93 40 -208 40t-209 -40
q-93 -41 -160 -117q-66 -76 -101.5 -184t-35.5 -239q0 -130 35.5 -238t102.5 -184.5t160 -117t208 -40.5t208 40.5t159.5 117t101.5 183.5t35 239z" />
    <glyph glyph-name="c207" unicode="&#xcf;" horiz-adv-x="1377" 
d="M1290 1366v-59q-42 -5 -57.5 -23.5t-15.5 -64.5v-1071q0 -46 15.5 -65t57.5 -23v-60h-315v60q30 2 49 16q18 12 21.5 26.5t3.5 59.5v1081h-723v-1081q0 -43 4 -57t20 -29q17 -14 50 -16v-60h-316v60q43 4 58 23q16 19 16 65v1071q0 46 -16 65q-15 18 -58 23v59h1206z" />
    <glyph glyph-name="c207" unicode="&#x41f;" horiz-adv-x="1377" 
d="M1290 1366v-59q-42 -5 -57.5 -23.5t-15.5 -64.5v-1071q0 -46 15.5 -65t57.5 -23v-60h-315v60q30 2 49 16q18 12 21.5 26.5t3.5 59.5v1081h-723v-1081q0 -43 4 -57t20 -29q17 -14 50 -16v-60h-316v60q43 4 58 23q16 19 16 65v1071q0 46 -16 65q-15 18 -58 23v59h1206z" />
    <glyph glyph-name="c208" unicode="&#xd0;" horiz-adv-x="1108" 
d="M88 1366h533q134 0 234 -44q101 -44 154.5 -125.5t53.5 -192.5q0 -130 -76 -223q-54 -70 -132 -127q-80 -57 -201.5 -112.5t-306.5 -119.5l-17 -6v-254q0 -45 3.5 -58.5t19.5 -27.5q19 -14 51 -16v-60h-316v60q42 4 57 23t15 65v1071q0 46 -15 64.5t-57 23.5v59zM330 557
l19 6q128 48 192 77t143 75q190 116 190 283q0 65 -28.5 116.5t-79.5 77.5q-97 49 -321 49q-62 0 -96 -2h-19v-682z" />
    <glyph glyph-name="c208" unicode="&#x420;" horiz-adv-x="1108" 
d="M88 1366h533q134 0 234 -44q101 -44 154.5 -125.5t53.5 -192.5q0 -130 -76 -223q-54 -70 -132 -127q-80 -57 -201.5 -112.5t-306.5 -119.5l-17 -6v-254q0 -45 3.5 -58.5t19.5 -27.5q19 -14 51 -16v-60h-316v60q42 4 57 23t15 65v1071q0 46 -15 64.5t-57 23.5v59zM330 557
l19 6q128 48 192 77t143 75q190 116 190 283q0 65 -28.5 116.5t-79.5 77.5q-97 49 -321 49q-62 0 -96 -2h-19v-682z" />
    <glyph glyph-name="c209" unicode="&#xd1;" horiz-adv-x="1295" 
d="M1264 1190l-174 -174l-47 45q18 29 18 49q0 63 -87 107.5t-210 44.5q-112 0 -205 -34.5t-158 -99.5q-66 -64 -101.5 -156t-35.5 -204q0 -269 187 -459q96 -96 225 -151q130 -57 254 -57q89 0 145 35q55 36 66 100h59v-246q-127 -20 -290 -20q-229 0 -422.5 104.5
t-306 285t-112.5 394.5q0 180 89 326q89 147 245 230t347 83q317 0 514 -203z" />
    <glyph glyph-name="c209" unicode="&#x421;" horiz-adv-x="1295" 
d="M1264 1190l-174 -174l-47 45q18 29 18 49q0 63 -87 107.5t-210 44.5q-112 0 -205 -34.5t-158 -99.5q-66 -64 -101.5 -156t-35.5 -204q0 -269 187 -459q96 -96 225 -151q130 -57 254 -57q89 0 145 35q55 36 66 100h59v-246q-127 -20 -290 -20q-229 0 -422.5 104.5
t-306 285t-112.5 394.5q0 180 89 326q89 147 245 230t347 83q317 0 514 -203z" />
    <glyph glyph-name="c210" unicode="&#xd2;" horiz-adv-x="1184" 
d="M19 1366h1132v-233h-53q-12 85 -68 92l-43 6l-30 4h-287v-1073q0 -44 3 -58q4 -14 19 -28q20 -14 52 -16v-60h-316v60q42 4 57 23t15 65v1087h-284l-31 -4l-45 -6q-52 -6 -68 -92h-53v233z" />
    <glyph glyph-name="c210" unicode="&#x422;" horiz-adv-x="1184" 
d="M19 1366h1132v-233h-53q-12 85 -68 92l-43 6l-30 4h-287v-1073q0 -44 3 -58q4 -14 19 -28q20 -14 52 -16v-60h-316v60q42 4 57 23t15 65v1087h-284l-31 -4l-45 -6q-52 -6 -68 -92h-53v233z" />
    <glyph glyph-name="c211" unicode="&#xd3;" horiz-adv-x="1071" 
d="M842 1366h260v-59q-13 -4 -14 -4q-24 -10 -33 -19q-13 -10 -37 -67l-422 -994q-110 -254 -295 -254q-69 0 -137 33l-24 199l59 14q20 -57 48 -81.5t71 -24.5q44 0 84.5 39.5t68.5 111.5l-436 981q-14 33 -28 45.5t-44 20.5v59h316v-61q-56 -6 -56 -37q0 -9 13 -35
l327 -764l318 758q10 26 10 37q0 28 -49 45v57z" />
    <glyph glyph-name="c211" unicode="&#x423;" horiz-adv-x="1071" 
d="M842 1366h260v-59q-13 -4 -14 -4q-24 -10 -33 -19q-13 -10 -37 -67l-422 -994q-110 -254 -295 -254q-69 0 -137 33l-24 199l59 14q20 -57 48 -81.5t71 -24.5q44 0 84.5 39.5t68.5 111.5l-436 981q-14 33 -28 45.5t-44 20.5v59h316v-61q-56 -6 -56 -37q0 -9 13 -35
l327 -764l318 758q10 26 10 37q0 28 -49 45v57z" />
    <glyph glyph-name="c212" unicode="&#xd4;" horiz-adv-x="1751" 
d="M723 -147v59q43 9 57.5 25t14.5 55v57q-205 8 -373 101.5t-263.5 251t-95.5 346.5q0 84 22.5 161t66 143t102.5 114q59 49 131 75q85 32 177 47q93 14 219 14h14v52v41q-3 15 -23 29q-13 11 -47 14v59h305v-59q-41 -6 -55 -23t-14 -61v-52h12q242 0 397 -61
q73 -27 133 -76q60 -48 101 -111q42 -64 64 -140t22 -160q0 -145 -53.5 -271.5t-152 -221.5t-232.5 -150t-291 -62v-57q0 -34 2 -43q3 -10 16 -19q15 -16 51 -18v-59h-307zM795 160v1032h-12q-161 0 -280 -51t-182 -148t-63 -227q0 -158 73 -296q74 -139 197 -222t267 -88z
M961 160q143 5 266 87.5t195.5 221t72.5 293.5q0 136 -60.5 233t-178 147t-283.5 50h-12v-1032z" />
    <glyph glyph-name="c212" unicode="&#x424;" horiz-adv-x="1751" 
d="M723 -147v59q43 9 57.5 25t14.5 55v57q-205 8 -373 101.5t-263.5 251t-95.5 346.5q0 84 22.5 161t66 143t102.5 114q59 49 131 75q85 32 177 47q93 14 219 14h14v52v41q-3 15 -23 29q-13 11 -47 14v59h305v-59q-41 -6 -55 -23t-14 -61v-52h12q242 0 397 -61
q73 -27 133 -76q60 -48 101 -111q42 -64 64 -140t22 -160q0 -145 -53.5 -271.5t-152 -221.5t-232.5 -150t-291 -62v-57q0 -34 2 -43q3 -10 16 -19q15 -16 51 -18v-59h-307zM795 160v1032h-12q-161 0 -280 -51t-182 -148t-63 -227q0 -158 73 -296q74 -139 197 -222t267 -88z
M961 160q143 5 266 87.5t195.5 221t72.5 293.5q0 136 -60.5 233t-178 147t-283.5 50h-12v-1032z" />
    <glyph glyph-name="c213" unicode="&#xd5;" horiz-adv-x="1180" 
d="M301 0h-329v58q36 10 59 26q21 12 30 21.5t28 36.5l401 575l-368 533q-17 28 -50 45q-6 2 -13.5 3.5t-27.5 6.5v61h373v-63q-2 0 -5.5 -1t-4.5 -1q-53 -6 -53 -39q0 -12 16 -39l254 -367l260 377q12 21 12 31q0 30 -57 39v63h318v-63q-66 -15 -111 -80l-340 -485
l426 -617q38 -52 92 -65v-56h-369v56q64 12 64 41q0 15 -10 26l-328 473l-309 -461q-15 -23 -15 -41q0 -28 58 -38z" />
    <glyph glyph-name="c213" unicode="&#x425;" horiz-adv-x="1180" 
d="M301 0h-329v58q36 10 59 26q21 12 30 21.5t28 36.5l401 575l-368 533q-17 28 -50 45q-6 2 -13.5 3.5t-27.5 6.5v61h373v-63q-2 0 -5.5 -1t-4.5 -1q-53 -6 -53 -39q0 -12 16 -39l254 -367l260 377q12 21 12 31q0 30 -57 39v63h318v-63q-66 -15 -111 -80l-340 -485
l426 -617q38 -52 92 -65v-56h-369v56q64 12 64 41q0 15 -10 26l-328 473l-309 -461q-15 -23 -15 -41q0 -28 58 -38z" />
    <glyph glyph-name="c214" unicode="&#xd6;" horiz-adv-x="1379" 
d="M1008 121v1083q0 44 -4 58q-5 15 -21 28q-16 14 -49 17v59h316v-59q-43 -5 -58.5 -23t-15.5 -65v-1098h131v-301h-57v16q0 98 -35 131q-40 33 -115 33h-358q-108 0 -163.5 3.5t-95.5 12.5q-41 10 -96 31q-96 38 -168 111t-111 171.5t-39 211.5q0 148 64 336q29 88 56 145
q13 36 71 146q27 49 37 65q15 29 15 37q0 28 -70 37v59h330v-59q-64 -29 -102 -68q-39 -38 -79 -116q-137 -272 -137 -533q0 -264 152 -385q37 -30 82 -49t105 -27t145 -8h270z" />
    <glyph glyph-name="c214" unicode="&#x426;" horiz-adv-x="1379" 
d="M1008 121v1083q0 44 -4 58q-5 15 -21 28q-16 14 -49 17v59h316v-59q-43 -5 -58.5 -23t-15.5 -65v-1098h131v-301h-57v16q0 98 -35 131q-40 33 -115 33h-358q-108 0 -163.5 3.5t-95.5 12.5q-41 10 -96 31q-96 38 -168 111t-111 171.5t-39 211.5q0 148 64 336q29 88 56 145
q13 36 71 146q27 49 37 65q15 29 15 37q0 28 -70 37v59h330v-59q-64 -29 -102 -68q-39 -38 -79 -116q-137 -272 -137 -533q0 -264 152 -385q37 -30 82 -49t105 -27t145 -8h270z" />
    <glyph glyph-name="c215" unicode="&#xd7;" horiz-adv-x="1151" 
d="M824 445l-20 -4q-138 -25 -245 -25q-135 0 -229 23q-122 30 -195.5 121t-73.5 212q0 76 21 154q26 118 105 289q12 27 12 49q0 43 -70 43v59h330v-59q-54 -8 -86 -47q-53 -64 -90 -200q-37 -135 -37 -257q0 -92 35.5 -149t110.5 -84t196 -27q126 0 236 33v628q0 46 -4 59
q-4 14 -19 27q-19 14 -49 17v59h315v-59q-42 -5 -57.5 -23.5t-15.5 -64.5v-1071q0 -46 15 -65q16 -19 58 -23v-60h-315v60q30 2 49 16q16 12 19.5 26.5t3.5 59.5v283z" />
    <glyph glyph-name="c215" unicode="&#x427;" horiz-adv-x="1151" 
d="M824 445l-20 -4q-138 -25 -245 -25q-135 0 -229 23q-122 30 -195.5 121t-73.5 212q0 76 21 154q26 118 105 289q12 27 12 49q0 43 -70 43v59h330v-59q-54 -8 -86 -47q-53 -64 -90 -200q-37 -135 -37 -257q0 -92 35.5 -149t110.5 -84t196 -27q126 0 236 33v628q0 46 -4 59
q-4 14 -19 27q-19 14 -49 17v59h315v-59q-42 -5 -57.5 -23.5t-15.5 -64.5v-1071q0 -46 15 -65q16 -19 58 -23v-60h-315v60q30 2 49 16q16 12 19.5 26.5t3.5 59.5v283z" />
    <glyph glyph-name="c216" unicode="&#xd8;" horiz-adv-x="1841" 
d="M257 1307l-1 59h328v-59q-67 -31 -103 -70q-37 -38 -81 -127q-131 -268 -131 -520q0 -469 454 -469h129v1083q0 45 -3.5 59t-18.5 27q-20 14 -52 17v59h316v-59q-42 -5 -58 -23.5t-16 -64.5v-1098h463v1083q0 46 -3.5 59.5t-19.5 26.5q-19 14 -51 17v59h316v-59
q-42 -5 -58.5 -23.5t-16.5 -64.5v-1071q0 -46 16.5 -65t58.5 -23v-60h-998q-119 0 -187 10t-138 37q-147 58 -233.5 191t-86.5 303q0 140 64 336q31 87 55 145q24 51 74 146q29 54 37 65q12 24 12 37q0 28 -67 37z" />
    <glyph glyph-name="c216" unicode="&#x428;" horiz-adv-x="1841" 
d="M257 1307l-1 59h328v-59q-67 -31 -103 -70q-37 -38 -81 -127q-131 -268 -131 -520q0 -469 454 -469h129v1083q0 45 -3.5 59t-18.5 27q-20 14 -52 17v59h316v-59q-42 -5 -58 -23.5t-16 -64.5v-1098h463v1083q0 46 -3.5 59.5t-19.5 26.5q-19 14 -51 17v59h316v-59
q-42 -5 -58.5 -23.5t-16.5 -64.5v-1071q0 -46 16.5 -65t58.5 -23v-60h-998q-119 0 -187 10t-138 37q-147 58 -233.5 191t-86.5 303q0 140 64 336q31 87 55 145q24 51 74 146q29 54 37 65q12 24 12 37q0 28 -67 37z" />
    <glyph glyph-name="c217" unicode="&#xd9;" horiz-adv-x="1860" 
d="M257 1307l-1 59h328v-59q-67 -31 -107 -74q-39 -43 -81 -133q-127 -264 -127 -504q0 -475 454 -475h129v1083q0 45 -3.5 59t-18.5 27q-20 14 -52 17v59h316v-59q-42 -5 -58 -23.5t-16 -64.5v-1098h463v1083q0 46 -3.5 59.5t-19.5 26.5q-19 14 -51 17v59h316v-59
q-42 -5 -58.5 -23.5t-16.5 -64.5v-1098h134v-301h-57v16q-3 99 -37 131q-40 33 -113 33h-850q-119 0 -187 10t-138 37q-147 58 -233.5 191t-86.5 303q0 140 64 336q31 87 55 145q24 51 74 146q29 54 37 65q12 24 12 37q0 28 -67 37z" />
    <glyph glyph-name="c217" unicode="&#x429;" horiz-adv-x="1860" 
d="M257 1307l-1 59h328v-59q-67 -31 -107 -74q-39 -43 -81 -133q-127 -264 -127 -504q0 -475 454 -475h129v1083q0 45 -3.5 59t-18.5 27q-20 14 -52 17v59h316v-59q-42 -5 -58 -23.5t-16 -64.5v-1098h463v1083q0 46 -3.5 59.5t-19.5 26.5q-19 14 -51 17v59h316v-59
q-42 -5 -58.5 -23.5t-16.5 -64.5v-1098h134v-301h-57v16q-3 99 -37 131q-40 33 -113 33h-850q-119 0 -187 10t-138 37q-147 58 -233.5 191t-86.5 303q0 140 64 336q31 87 55 145q24 51 74 146q29 54 37 65q12 24 12 37q0 28 -67 37z" />
    <glyph glyph-name="c218" unicode="&#xda;" horiz-adv-x="1331" 
d="M604 1366v-59q-43 0 -57 -23q-10 -12 -12 -27t-2 -75v-246q113 -32 258 -96q164 -71 291 -158q90 -62 139 -149t49 -187q0 -148 -115 -247q-63 -55 -133 -75.5t-205 -23.5h-528v60q43 4 58.5 23t15.5 65v1089h-119q-68 0 -99 -28.5t-34 -94.5h-49v252h542zM533 809v-696
h8h72q20 -3 59 -3q125 0 189.5 10t113.5 36q51 27 84 87q34 60 34 122q0 73 -44.5 143t-124.5 119q-157 103 -391 182z" />
    <glyph glyph-name="c218" unicode="&#x42a;" horiz-adv-x="1331" 
d="M604 1366v-59q-43 0 -57 -23q-10 -12 -12 -27t-2 -75v-246q113 -32 258 -96q164 -71 291 -158q90 -62 139 -149t49 -187q0 -148 -115 -247q-63 -55 -133 -75.5t-205 -23.5h-528v60q43 4 58.5 23t15.5 65v1089h-119q-68 0 -99 -28.5t-34 -94.5h-49v252h542zM533 809v-696
h8h72q20 -3 59 -3q125 0 189.5 10t113.5 36q51 27 84 87q34 60 34 122q0 73 -44.5 143t-124.5 119q-157 103 -391 182z" />
    <glyph glyph-name="c219" unicode="&#xdb;" horiz-adv-x="1557" 
d="M400 1366v-59q-30 -3 -50 -17q-15 -13 -19.5 -27.5t-4.5 -58.5v-268q113 -31 260 -96q162 -71 291 -158q89 -62 138.5 -149.5t49.5 -186.5q0 -148 -114 -247q-64 -55 -139 -77t-199 -22h-529v60q43 4 58 23q16 19 16 65v1071q0 46 -16 65q-15 18 -58 23v59h316z
M1155 1307v59h316v-59q-43 -5 -59 -23t-16 -65v-1071q0 -46 17 -65q15 -19 58 -23v-60h-316v60q30 2 49 16q18 12 21.5 26.5t3.5 59.5v1042q0 46 -3 59q-4 14 -22 27q-16 14 -49 17zM326 809v-697h10h72q18 -2 59 -2q126 0 190 10t113 36q50 27 85 87q34 61 34 122
q0 73 -45 143t-124 119q-162 104 -394 182z" />
    <glyph glyph-name="c219" unicode="&#x42b;" horiz-adv-x="1557" 
d="M400 1366v-59q-30 -3 -50 -17q-15 -13 -19.5 -27.5t-4.5 -58.5v-268q113 -31 260 -96q162 -71 291 -158q89 -62 138.5 -149.5t49.5 -186.5q0 -148 -114 -247q-64 -55 -139 -77t-199 -22h-529v60q43 4 58 23q16 19 16 65v1071q0 46 -16 65q-15 18 -58 23v59h316z
M1155 1307v59h316v-59q-43 -5 -59 -23t-16 -65v-1071q0 -46 17 -65q15 -19 58 -23v-60h-316v60q30 2 49 16q18 12 21.5 26.5t3.5 59.5v1042q0 46 -3 59q-4 14 -22 27q-16 14 -49 17zM326 809v-697h10h72q18 -2 59 -2q126 0 190 10t113 36q50 27 85 87q34 61 34 122
q0 73 -45 143t-124 119q-162 104 -394 182z" />
    <glyph glyph-name="c220" unicode="&#xdc;" horiz-adv-x="1127" 
d="M400 1366v-59q-30 -3 -50 -17q-15 -13 -19.5 -27.5t-4.5 -58.5v-268q113 -31 260 -96q162 -71 291 -158q89 -62 138.5 -149.5t49.5 -186.5q0 -148 -114 -247q-64 -55 -139 -77t-199 -22h-529v60q43 4 58 23q16 19 16 65v1071q0 46 -16 65q-15 18 -58 23v59h316zM326 809
v-697h10h72q18 -2 59 -2q126 0 190 10t113 36q50 27 85 87q34 61 34 122q0 73 -45 143t-124 119q-162 104 -394 182z" />
    <glyph glyph-name="c220" unicode="&#x42c;" horiz-adv-x="1127" 
d="M400 1366v-59q-30 -3 -50 -17q-15 -13 -19.5 -27.5t-4.5 -58.5v-268q113 -31 260 -96q162 -71 291 -158q89 -62 138.5 -149.5t49.5 -186.5q0 -148 -114 -247q-64 -55 -139 -77t-199 -22h-529v60q43 4 58 23q16 19 16 65v1071q0 46 -16 65q-15 18 -58 23v59h316zM326 809
v-697h10h72q18 -2 59 -2q126 0 190 10t113 36q50 27 85 87q34 61 34 122q0 73 -45 143t-124 119q-162 104 -394 182z" />
    <glyph glyph-name="c221" unicode="&#xdd;" horiz-adv-x="1295" 
d="M93 -8l-1 242h52q38 -140 211 -140q106 0 220.5 43.5t213.5 121.5q234 190 246 477q-103 -78 -228 -78q-57 0 -131 21l-59 18q-44 10 -72 10q-40 0 -67 -24.5t-27 -57.5q0 -12 4 -23l-53 -14l-45 182q38 35 69 51q59 31 142 31q38 0 71 -12l68 -27q85 -30 141 -30
q96 0 181 71q-14 93 -56 171q-44 77 -109.5 131t-151.5 83q-85 29 -185 29q-126 0 -215 -47q-88 -46 -88 -111q0 -25 16 -47l-41 -43l-172 168q67 64 129 102q85 54 169 76.5t197 22.5q202 0 361.5 -81t248.5 -227.5t89 -330.5q0 -216 -115 -395q-114 -179 -314 -281
t-442 -102q-127 0 -257 20z" />
    <glyph glyph-name="c221" unicode="&#x42d;" horiz-adv-x="1295" 
d="M93 -8l-1 242h52q38 -140 211 -140q106 0 220.5 43.5t213.5 121.5q234 190 246 477q-103 -78 -228 -78q-57 0 -131 21l-59 18q-44 10 -72 10q-40 0 -67 -24.5t-27 -57.5q0 -12 4 -23l-53 -14l-45 182q38 35 69 51q59 31 142 31q38 0 71 -12l68 -27q85 -30 141 -30
q96 0 181 71q-14 93 -56 171q-44 77 -109.5 131t-151.5 83q-85 29 -185 29q-126 0 -215 -47q-88 -46 -88 -111q0 -25 16 -47l-41 -43l-172 168q67 64 129 102q85 54 169 76.5t197 22.5q202 0 361.5 -81t248.5 -227.5t89 -330.5q0 -216 -115 -395q-114 -179 -314 -281
t-442 -102q-127 0 -257 20z" />
    <glyph glyph-name="c222" unicode="&#xde;" horiz-adv-x="1968" 
d="M404 60v-59l-316 -1v60q30 2 49 16q16 12 20.5 27t4.5 59v1042q0 46 -4 59.5t-21 26.5q-16 14 -49 17v60l316 -1v-59q-43 -5 -59 -23t-16 -65v-393h198q25 163 121 291.5t245 200t324 71.5q148 0 272 -51q124 -53 214.5 -147t140.5 -225q49 -130 49 -284
q0 -157 -49.5 -288.5t-141.5 -225.5t-220.5 -145t-281.5 -51q-145 0 -270 50.5t-219.5 143.5t-145.5 216.5t-51 266.5q0 31 2 58h-187v-559q0 -46 17 -65q15 -19 58 -23zM1204 1266q-114 0 -207 -40q-93 -42 -159 -119.5t-100 -186.5q-35 -108 -35 -244q0 -133 35 -241
t101 -185q67 -77 160.5 -117.5t209.5 -40.5q110 0 203 41t158.5 117.5t100.5 182t35 237.5q0 136 -34.5 246t-100.5 188t-159 121q-93 41 -208 41z" />
    <glyph glyph-name="c222" unicode="&#x42e;" horiz-adv-x="1968" 
d="M404 60v-59l-316 -1v60q30 2 49 16q16 12 20.5 27t4.5 59v1042q0 46 -4 59.5t-21 26.5q-16 14 -49 17v60l316 -1v-59q-43 -5 -59 -23t-16 -65v-393h198q25 163 121 291.5t245 200t324 71.5q148 0 272 -51q124 -53 214.5 -147t140.5 -225q49 -130 49 -284
q0 -157 -49.5 -288.5t-141.5 -225.5t-220.5 -145t-281.5 -51q-145 0 -270 50.5t-219.5 143.5t-145.5 216.5t-51 266.5q0 31 2 58h-187v-559q0 -46 17 -65q15 -19 58 -23zM1204 1266q-114 0 -207 -40q-93 -42 -159 -119.5t-100 -186.5q-35 -108 -35 -244q0 -133 35 -241
t101 -185q67 -77 160.5 -117.5t209.5 -40.5q110 0 203 41t158.5 117.5t100.5 182t35 237.5q0 136 -34.5 246t-100.5 188t-159 121q-93 41 -208 41z" />
    <glyph glyph-name="c223" unicode="&#xdf;" horiz-adv-x="1204" 
d="M504 621q-198 23 -302.5 121.5t-104.5 261.5q0 175 111 268.5t321 93.5h592v-59q-41 -2 -57.5 -21t-16.5 -67v-1071q0 -46 15.5 -65t58.5 -23v-60h-316v60q30 2 49 16q16 12 19.5 26.5t3.5 59.5v453h-172l-447 -615h-229v60q61 3 100 53zM877 1235h-330q-134 0 -204 -60
t-70 -175q0 -126 85 -193t246 -67h273v495z" />
    <glyph glyph-name="c223" unicode="&#x42f;" horiz-adv-x="1204" 
d="M504 621q-198 23 -302.5 121.5t-104.5 261.5q0 175 111 268.5t321 93.5h592v-59q-41 -2 -57.5 -21t-16.5 -67v-1071q0 -46 15.5 -65t58.5 -23v-60h-316v60q30 2 49 16q16 12 19.5 26.5t3.5 59.5v453h-172l-447 -615h-229v60q61 3 100 53zM877 1235h-330q-134 0 -204 -60
t-70 -175q0 -126 85 -193t246 -67h273v495z" />
    <glyph glyph-name="c224" unicode="&#xe0;" horiz-adv-x="981" 
d="M928 1h-236v98q-152 -117 -313 -117q-91 0 -165 36q-73 36 -115 102q-41 65 -41 144q0 203 215 304q81 37 156 54t245 36l16 2q-6 80 -63.5 123t-157.5 43q-124 0 -200 -54q-34 -25 -68 -82h-49v166q160 88 330 88q183 0 277.5 -80.5t94.5 -234.5v-502q0 -37 16.5 -55
t57.5 -25v-46zM692 545q-460 -46 -460 -272q0 -68 51 -112q52 -44 133 -44q76 0 154 41t122 106v281z" />
    <glyph glyph-name="c224" unicode="&#x430;" horiz-adv-x="981" 
d="M928 1h-236v98q-152 -117 -313 -117q-91 0 -165 36q-73 36 -115 102q-41 65 -41 144q0 203 215 304q81 37 156 54t245 36l16 2q-6 80 -63.5 123t-157.5 43q-124 0 -200 -54q-34 -25 -68 -82h-49v166q160 88 330 88q183 0 277.5 -80.5t94.5 -234.5v-502q0 -37 16.5 -55
t57.5 -25v-46zM692 545q-460 -46 -460 -272q0 -68 51 -112q52 -44 133 -44q76 0 154 41t122 106v281z" />
    <glyph glyph-name="c225" unicode="&#xe1;" horiz-adv-x="1088" 
d="M867 1424l24 -191q-80 -59 -199 -59q-40 0 -71 6q-19 6 -53 14q-113 28 -187 28q-90 0 -133 -53q-42 -55 -42 -169q0 -94 28 -230q58 89 130.5 124.5t194.5 35.5q114 0 188.5 -27t139.5 -92q137 -137 137 -352q0 -108 -33 -196t-96 -151.5t-151 -97.5t-193 -34
q-110 0 -201 34q-90 32 -155 95q-64 63 -98.5 151.5t-34.5 196.5q0 61 15 127l22 96q12 49 12 84q0 21 -10 86q-22 103 -22 162q0 104 41 183.5t117.5 123t174.5 43.5q58 0 106 -12q5 0 91 -23q45 -12 83 -12q55 0 92 24.5t37 59.5q0 2 -1 8t-1 10zM535 838q-91 0 -160 -48
q-69 -47 -106 -135t-37 -204q0 -115 37 -199q38 -84 108 -129t166 -45q92 0 162 45.5t107.5 129.5t37.5 198q0 180 -84 283q-85 104 -231 104z" />
    <glyph glyph-name="c225" unicode="&#x431;" horiz-adv-x="1088" 
d="M867 1424l24 -191q-80 -59 -199 -59q-40 0 -71 6q-19 6 -53 14q-113 28 -187 28q-90 0 -133 -53q-42 -55 -42 -169q0 -94 28 -230q58 89 130.5 124.5t194.5 35.5q114 0 188.5 -27t139.5 -92q137 -137 137 -352q0 -108 -33 -196t-96 -151.5t-151 -97.5t-193 -34
q-110 0 -201 34q-90 32 -155 95q-64 63 -98.5 151.5t-34.5 196.5q0 61 15 127l22 96q12 49 12 84q0 21 -10 86q-22 103 -22 162q0 104 41 183.5t117.5 123t174.5 43.5q58 0 106 -12q5 0 91 -23q45 -12 83 -12q55 0 92 24.5t37 59.5q0 2 -1 8t-1 10zM535 838q-91 0 -160 -48
q-69 -47 -106 -135t-37 -204q0 -115 37 -199q38 -84 108 -129t166 -45q92 0 162 45.5t107.5 129.5t37.5 198q0 180 -84 283q-85 104 -231 104z" />
    <glyph glyph-name="c226" unicode="&#xe2;" horiz-adv-x="1077" 
d="M60 49q44 8 58.5 25.5t14.5 62.5v553v131l-8 213q0 168 102.5 259t288.5 91q117 0 204 -35.5t134 -102.5t47 -156q0 -74 -28 -125q-25 -49 -58 -74q-52 -45 -163 -82q131 -15 194 -49q67 -37 107 -116q41 -79 41 -173q0 -132 -73 -239.5t-200 -169.5t-280 -62h-381v49z
M285 756l127 43q162 52 233 100q41 28 64.5 77t23.5 104q0 90 -61 144t-164 54q-123 0 -179.5 -68.5t-56.5 -215.5q0 -48 7 -121q2 -41 6 -117zM289 652v-535q33 -9 82 -9q134 0 237 44t159.5 124t56.5 185q0 79 -33 141q-32 61 -92 94q-59 33 -138 33q-120 0 -272 -77z" />
    <glyph glyph-name="c226" unicode="&#x432;" horiz-adv-x="1077" 
d="M60 49q44 8 58.5 25.5t14.5 62.5v553v131l-8 213q0 168 102.5 259t288.5 91q117 0 204 -35.5t134 -102.5t47 -156q0 -74 -28 -125q-25 -49 -58 -74q-52 -45 -163 -82q131 -15 194 -49q67 -37 107 -116q41 -79 41 -173q0 -132 -73 -239.5t-200 -169.5t-280 -62h-381v49z
M285 756l127 43q162 52 233 100q41 28 64.5 77t23.5 104q0 90 -61 144t-164 54q-123 0 -179.5 -68.5t-56.5 -215.5q0 -48 7 -121q2 -41 6 -117zM289 652v-535q33 -9 82 -9q134 0 237 44t159.5 124t56.5 185q0 79 -33 141q-32 61 -92 94q-59 33 -138 33q-120 0 -272 -77z" />
    <glyph glyph-name="c227" unicode="&#xe3;" horiz-adv-x="854" 
d="M154 656v202q116 78 276 78q95 0 174 -32.5t124 -90.5t45 -127q0 -94 -82 -153q-59 -42 -207 -86q-113 -33 -170 -66q-86 -51 -86 -141q0 -66 53 -108t137 -42q132 0 214 59.5t95 164.5h54v-215q-134 -121 -349 -121q-165 0 -256 63q-54 37 -85 95q-33 58 -33 116
q0 53 25 101.5t67 78.5q59 46 203 88q21 7 43 13.5t41 13.5q41 12 88 35q40 20 64 55.5t24 75.5q0 51 -51 85t-128 34q-60 0 -111 -22t-82 -62q-30 -40 -36 -92h-51z" />
    <glyph glyph-name="c227" unicode="&#x433;" horiz-adv-x="854" 
d="M154 656v202q116 78 276 78q95 0 174 -32.5t124 -90.5t45 -127q0 -94 -82 -153q-59 -42 -207 -86q-113 -33 -170 -66q-86 -51 -86 -141q0 -66 53 -108t137 -42q132 0 214 59.5t95 164.5h54v-215q-134 -121 -349 -121q-165 0 -256 63q-54 37 -85 95q-33 58 -33 116
q0 53 25 101.5t67 78.5q59 46 203 88q21 7 43 13.5t41 13.5q41 12 88 35q40 20 64 55.5t24 75.5q0 51 -51 85t-128 34q-60 0 -111 -22t-82 -62q-30 -40 -36 -92h-51z" />
    <glyph glyph-name="c228" unicode="&#xe4;" horiz-adv-x="1073" 
d="M45 -240l168 152l37 -35q-22 -28 -22 -55q0 -51 78.5 -90t179.5 -39q95 0 172 31t121.5 86t44.5 122q0 80 -41 173q-127 -121 -310 -121q-88 0 -162 28.5t-129 83.5t-84 130.5t-29 164.5q0 144 70 263t191 188.5t266 69.5h422v-51q-46 -5 -61 -21t-15 -62v-620l4 -37
l19 -53q1 -8 4 -21q4 -13 6 -28q10 -66 10 -95q0 -98 -64 -180.5t-174.5 -129t-244.5 -46.5q-139 0 -259 50.5t-198 141.5zM781 793q-31 4 -74 4q-124 0 -209 -28q-111 -36 -180 -137q-70 -100 -70 -226q0 -134 73.5 -216.5t190.5 -82.5q50 0 99 17q55 17 102 59
q14 10 60 53l8 8v549z" />
    <glyph glyph-name="c228" unicode="&#x434;" horiz-adv-x="1073" 
d="M45 -240l168 152l37 -35q-22 -28 -22 -55q0 -51 78.5 -90t179.5 -39q95 0 172 31t121.5 86t44.5 122q0 80 -41 173q-127 -121 -310 -121q-88 0 -162 28.5t-129 83.5t-84 130.5t-29 164.5q0 144 70 263t191 188.5t266 69.5h422v-51q-46 -5 -61 -21t-15 -62v-620l4 -37
l19 -53q1 -8 4 -21q4 -13 6 -28q10 -66 10 -95q0 -98 -64 -180.5t-174.5 -129t-244.5 -46.5q-139 0 -259 50.5t-198 141.5zM781 793q-31 4 -74 4q-124 0 -209 -28q-111 -36 -180 -137q-70 -100 -70 -226q0 -134 73.5 -216.5t190.5 -82.5q50 0 99 17q55 17 102 59
q14 10 60 53l8 8v549z" />
    <glyph glyph-name="c229" unicode="&#xe5;" horiz-adv-x="971" 
d="M908 469h-676q6 -85 33.5 -153.5t76.5 -119.5t112 -78.5t138 -27.5q165 0 227 133h50v-182q-32 -16 -99 -35q-89 -24 -124.5 -30t-90.5 -6q-228 0 -362 149q-61 67 -95 160q-36 94 -36 188q0 129 58 238q59 109 159.5 172t218.5 63q120 0 213.5 -57.5t144.5 -162.5
q52 -105 52 -238v-13zM730 579q-5 50 -14 88q-21 74 -75 114t-137 40q-104 0 -174 -64q-69 -64 -88 -178h488z" />
    <glyph glyph-name="c229" unicode="&#x435;" horiz-adv-x="971" 
d="M908 469h-676q6 -85 33.5 -153.5t76.5 -119.5t112 -78.5t138 -27.5q165 0 227 133h50v-182q-32 -16 -99 -35q-89 -24 -124.5 -30t-90.5 -6q-228 0 -362 149q-61 67 -95 160q-36 94 -36 188q0 129 58 238q59 109 159.5 172t218.5 63q120 0 213.5 -57.5t144.5 -162.5
q52 -105 52 -238v-13zM730 579q-5 50 -14 88q-21 74 -75 114t-137 40q-104 0 -174 -64q-69 -64 -88 -178h488z" />
    <glyph glyph-name="c230" unicode="&#xe6;" horiz-adv-x="1450" 
d="M805 1364v-833l332 272q10 10 10 18q0 29 -59 35v56h334v-54q-27 -5 -39 -12q-2 -1 -29 -16q-12 -9 -22 -15q-9 -7 -11 -8l-278 -217l327 -463q32 -45 52 -61.5t47 -16.5v-49h-336v49h12q55 0 55 31q0 10 -16 35l-258 381l-121 -94v-279q0 -35 15 -51t53 -23v-49h-299v49
q40 6 54.5 22t14.5 56v275l-121 94l-258 -381q-16 -26 -16 -35q0 -31 55 -31h13v-49h-337v49q27 0 47 16t52 62l328 463l-279 217q-1 1 -10 7.5t-23 15.5q-19 13 -26 16q-13 7 -41 12v54h334v-56q-60 -6 -60 -35q0 -8 11 -18l331 -272v700q0 46 -15 63t-60 21v49h237z" />
    <glyph glyph-name="c230" unicode="&#x436;" horiz-adv-x="1450" 
d="M805 1364v-833l332 272q10 10 10 18q0 29 -59 35v56h334v-54q-27 -5 -39 -12q-2 -1 -29 -16q-12 -9 -22 -15q-9 -7 -11 -8l-278 -217l327 -463q32 -45 52 -61.5t47 -16.5v-49h-336v49h12q55 0 55 31q0 10 -16 35l-258 381l-121 -94v-279q0 -35 15 -51t53 -23v-49h-299v49
q40 6 54.5 22t14.5 56v275l-121 94l-258 -381q-16 -26 -16 -35q0 -31 55 -31h13v-49h-337v49q27 0 47 16t52 62l328 463l-279 217q-1 1 -10 7.5t-23 15.5q-19 13 -26 16q-13 7 -41 12v54h334v-56q-60 -6 -60 -35q0 -8 11 -18l331 -272v700q0 46 -15 63t-60 21v49h237z" />
    <glyph glyph-name="c231" unicode="&#xe7;" horiz-adv-x="828" 
d="M115 865q4 2 8.5 4t5.5 4q53 25 72 32q37 15 94.5 25t104.5 10q106 0 185 -30t121 -86t42 -134t-36 -122q-36 -43 -126 -74q47 -14 80 -29q51 -26 81.5 -78.5t30.5 -113.5q0 -80 -49 -149t-132 -110.5t-177 -41.5t-197 30q-99 29 -188 131l76 156l43 -18q-2 -11 -2 -23
q0 -63 69.5 -109.5t163.5 -46.5q99 0 160 50q62 50 62 131q0 157 -191 157h-184v106h180q174 0 174 146q0 71 -50 111q-51 41 -138 41q-94 0 -154 -41q-61 -40 -76 -113h-53v185z" />
    <glyph glyph-name="c231" unicode="&#x437;" horiz-adv-x="828" 
d="M115 865q4 2 8.5 4t5.5 4q53 25 72 32q37 15 94.5 25t104.5 10q106 0 185 -30t121 -86t42 -134t-36 -122q-36 -43 -126 -74q47 -14 80 -29q51 -26 81.5 -78.5t30.5 -113.5q0 -80 -49 -149t-132 -110.5t-177 -41.5t-197 30q-99 29 -188 131l76 156l43 -18q-2 -11 -2 -23
q0 -63 69.5 -109.5t163.5 -46.5q99 0 160 50q62 50 62 131q0 157 -191 157h-184v106h180q174 0 174 146q0 71 -50 111q-51 41 -138 41q-94 0 -154 -41q-61 -40 -76 -113h-53v185z" />
    <glyph glyph-name="c232" unicode="&#xe8;" horiz-adv-x="1075" 
d="M934 914v-783q0 -40 15 -55t63 -25v-48h-242v96q-92 -70 -161 -97.5t-152 -27.5q-104 0 -182 41q-77 42 -119 120q-41 78 -41 183v475q0 37 -16 52q-15 16 -54 17v52h240v-559q0 -111 33 -166q24 -38 71 -62t99 -24q108 0 213 84q30 23 69 57v549q0 29 -20.5 48.5
t-52.5 20.5v52h237z" />
    <glyph glyph-name="c232" unicode="&#x438;" horiz-adv-x="1075" 
d="M934 914v-783q0 -40 15 -55t63 -25v-48h-242v96q-92 -70 -161 -97.5t-152 -27.5q-104 0 -182 41q-77 42 -119 120q-41 78 -41 183v475q0 37 -16 52q-15 16 -54 17v52h240v-559q0 -111 33 -166q24 -38 71 -62t99 -24q108 0 213 84q30 23 69 57v549q0 29 -20.5 48.5
t-52.5 20.5v52h237z" />
    <glyph glyph-name="c233" unicode="&#xe9;" horiz-adv-x="1075" 
d="M934 912v-783q0 -40 15 -55t63 -25v-48h-242v96q-93 -70 -160 -96.5t-151 -26.5q-107 0 -184.5 41t-118.5 118t-41 183v475q0 37 -16 52q-15 16 -54 17v52h240v-559q0 -111 33 -166q24 -38 71 -62t99 -24q108 0 213 84q30 23 69 57v549q0 29 -20.5 48.5t-52.5 20.5v52
h237zM373 1305l41 -27q-14 -26 -14 -49q0 -34 33 -59t81 -25t80 26q33 25 33 60q0 20 -12 47l39 27l106 -172q-108 -80 -246 -80q-136 0 -247 80z" />
    <glyph glyph-name="c233" unicode="&#x439;" horiz-adv-x="1075" 
d="M934 912v-783q0 -40 15 -55t63 -25v-48h-242v96q-93 -70 -160 -96.5t-151 -26.5q-107 0 -184.5 41t-118.5 118t-41 183v475q0 37 -16 52q-15 16 -54 17v52h240v-559q0 -111 33 -166q24 -38 71 -62t99 -24q108 0 213 84q30 23 69 57v549q0 29 -20.5 48.5t-52.5 20.5v52
h237zM373 1305l41 -27q-14 -26 -14 -49q0 -34 33 -59t81 -25t80 26q33 25 33 60q0 20 -12 47l39 27l106 -172q-108 -80 -246 -80q-136 0 -247 80z" />
    <glyph glyph-name="c234" unicode="&#xea;" horiz-adv-x="969" 
d="M68 0v49q2 0 6 1l4 1q38 6 48.5 19.5t10.5 56.5v1104q0 45 -16 63t-59 21v49h237v-846l346 285q17 14 17 25q0 17 -49 30q-7 0 -11 2v52h338v-52q-28 -2 -35 -6q-12 -6 -24 -14l-25 -19l-295 -227l349 -487q10 -17 12 -17q0 -1 26 -20q22 -16 43 -21v-49h-337v49
q63 7 63 35q0 11 -8 19l-266 395l-144 -111v-264q0 -37 15 -52.5t53 -21.5v-49h-299z" />
    <glyph glyph-name="c234" unicode="&#x43a;" horiz-adv-x="969" 
d="M68 0v49q2 0 6 1l4 1q38 6 48.5 19.5t10.5 56.5v1104q0 45 -16 63t-59 21v49h237v-846l346 285q17 14 17 25q0 17 -49 30q-7 0 -11 2v52h338v-52q-28 -2 -35 -6q-12 -6 -24 -14l-25 -19l-295 -227l349 -487q10 -17 12 -17q0 -1 26 -20q22 -16 43 -21v-49h-337v49
q63 7 63 35q0 11 -8 19l-266 395l-144 -111v-264q0 -37 15 -52.5t53 -21.5v-49h-299z" />
    <glyph glyph-name="c235" unicode="&#xeb;" horiz-adv-x="885" 
d="M531 924l279 -795q27 -77 75 -80v-49h-278v49q51 3 51 29q0 4 -2 4l-8 27l-226 661l-209 -626l-8 -25q-6 -12 -6 -27q0 -35 53 -41q2 0 5 -1q4 -1 7 -1v-49h-264v49q31 6 45 18q15 12 25 44l285 813h176z" />
    <glyph glyph-name="c235" unicode="&#x43b;" horiz-adv-x="885" 
d="M531 924l279 -795q27 -77 75 -80v-49h-278v49q51 3 51 29q0 4 -2 4l-8 27l-226 661l-209 -626l-8 -25q-6 -12 -6 -27q0 -35 53 -41q2 0 5 -1q4 -1 7 -1v-49h-264v49q31 6 45 18q15 12 25 44l285 813h176z" />
    <glyph glyph-name="c236" unicode="&#xec;" horiz-adv-x="1188" 
d="M1057 912v-52h-2q-43 0 -43 -51v-12l119 -666q7 -42 21 -59t44 -23v-49h-260v49q6 0 8 2q35 3 35 39q0 11 -2 15l-117 635l-223 -600h-102l-252 602l-105 -615q-4 -25 -4 -35q0 -22 10.5 -31t41.5 -12v-49h-230v49q30 7 41 21.5t19 50.5l120 678q0 3 1 9t1 9q0 43 -45 43
v52h254l222 -562l194 562h254z" />
    <glyph glyph-name="c236" unicode="&#x43c;" horiz-adv-x="1188" 
d="M1057 912v-52h-2q-43 0 -43 -51v-12l119 -666q7 -42 21 -59t44 -23v-49h-260v49q6 0 8 2q35 3 35 39q0 11 -2 15l-117 635l-223 -600h-102l-252 602l-105 -615q-4 -25 -4 -35q0 -22 10.5 -31t41.5 -12v-49h-230v49q30 7 41 21.5t19 50.5l120 678q0 3 1 9t1 9q0 43 -45 43
v52h254l222 -562l194 562h254z" />
    <glyph glyph-name="c237" unicode="&#xed;" horiz-adv-x="1073" 
d="M948 912v-797q0 -66 72 -66v-49h-301v49q68 9 68 70v350h-488v-348q0 -17 10 -33q12 -21 23 -26q12 -8 29 -11q8 0 12 -2v-49h-301v49h2q66 0 66 74v660q0 42 -14 56q-15 15 -62 19v54h235v-335h488v201q0 44 -12 58t-52 20l-4 1t-8 1v54h237z" />
    <glyph glyph-name="c237" unicode="&#x43d;" horiz-adv-x="1073" 
d="M948 912v-797q0 -66 72 -66v-49h-301v49q68 9 68 70v350h-488v-348q0 -17 10 -33q12 -21 23 -26q12 -8 29 -11q8 0 12 -2v-49h-301v49h2q66 0 66 74v660q0 42 -14 56q-15 15 -62 19v54h235v-335h488v201q0 44 -12 58t-52 20l-4 1t-8 1v54h237z" />
    <glyph glyph-name="c238" unicode="&#xee;" horiz-adv-x="1084" 
d="M541 938q104 0 192.5 -35.5t154 -100.5t101 -154t35.5 -193t-35 -193q-36 -88 -101 -153.5t-154 -101t-193 -35.5q-139 0 -250 61q-110 62 -172 172q-61 111 -61 250q0 138 61.5 248t172.5 172.5t249 62.5zM234 455q0 -114 37 -199t106 -130q70 -46 164 -46
q93 0 162.5 45.5t107 130t37.5 199.5t-37 199t-107 129t-163 45q-95 0 -164.5 -45t-105.5 -130q-37 -84 -37 -198z" />
    <glyph glyph-name="c238" unicode="&#x43e;" horiz-adv-x="1084" 
d="M541 938q104 0 192.5 -35.5t154 -100.5t101 -154t35.5 -193t-35 -193q-36 -88 -101 -153.5t-154 -101t-193 -35.5q-139 0 -250 61q-110 62 -172 172q-61 111 -61 250q0 138 61.5 248t172.5 172.5t249 62.5zM234 455q0 -114 37 -199t106 -130q70 -46 164 -46
q93 0 162.5 45.5t107 130t37.5 199.5t-37 199t-107 129t-163 45q-95 0 -164.5 -45t-105.5 -130q-37 -84 -37 -198z" />
    <glyph glyph-name="c239" unicode="&#xef;" horiz-adv-x="1073" 
d="M299 912v-101q161 129 318 129q100 0 176 -41.5t117 -118.5t41 -178v-473q0 -40 16.5 -58.5t54.5 -21.5v-49h-301v49q37 9 52.5 26t15.5 50v418q0 74 -8 119q-11 66 -65.5 106.5t-131.5 40.5q-137 0 -285 -139v-537q0 -37 13.5 -55t46.5 -25q2 -1 6 -2t6 -2v-49h-301v49
q70 10 70 76v658q0 35 -14 51q-13 15 -52 22q-1 0 -5 1t-7 1v54h237z" />
    <glyph glyph-name="c239" unicode="&#x43f;" horiz-adv-x="1073" 
d="M299 912v-101q161 129 318 129q100 0 176 -41.5t117 -118.5t41 -178v-473q0 -40 16.5 -58.5t54.5 -21.5v-49h-301v49q37 9 52.5 26t15.5 50v418q0 74 -8 119q-11 66 -65.5 106.5t-131.5 40.5q-137 0 -285 -139v-537q0 -37 13.5 -55t46.5 -25q2 -1 6 -2t6 -2v-49h-301v49
q70 10 70 76v658q0 35 -14 51q-13 15 -52 22q-1 0 -5 1t-7 1v54h237z" />
    <glyph glyph-name="c240" unicode="&#xf0;" horiz-adv-x="1075" 
d="M58 -428v47q71 9 71 72v1087q0 44 -17 62q-17 19 -59 20v52h238v-99q152 125 303 125q114 0 206.5 -55.5t146.5 -154.5q53 -98 53 -220q0 -74 -21.5 -146.5t-64.5 -135.5q-42 -63 -101 -111q-57 -47 -123 -76q-55 -23 -109.5 -31t-158.5 -8h-131v-312q0 -30 15 -45
t51 -22q8 0 12 -2v-47h-311zM291 674v-557q31 -5 78 -5q90 0 174 17q80 19 144.5 72t100.5 132t36 167q0 87 -35.5 157.5t-97 110t-138.5 39.5q-62 0 -138 -38.5t-124 -94.5z" />
    <glyph glyph-name="c240" unicode="&#x440;" horiz-adv-x="1075" 
d="M58 -428v47q71 9 71 72v1087q0 44 -17 62q-17 19 -59 20v52h238v-99q152 125 303 125q114 0 206.5 -55.5t146.5 -154.5q53 -98 53 -220q0 -74 -21.5 -146.5t-64.5 -135.5q-42 -63 -101 -111q-57 -47 -123 -76q-55 -23 -109.5 -31t-158.5 -8h-131v-312q0 -30 15 -45
t51 -22q8 0 12 -2v-47h-311zM291 674v-557q31 -5 78 -5q90 0 174 17q80 19 144.5 72t100.5 132t36 167q0 87 -35.5 157.5t-97 110t-138.5 39.5q-62 0 -138 -38.5t-124 -94.5z" />
    <glyph glyph-name="c241" unicode="&#xf1;" horiz-adv-x="969" 
d="M930 781l-143 -158l-41 35q16 29 16 51q0 46 -59.5 78t-145.5 32q-87 0 -159 -42q-71 -43 -111.5 -118t-40.5 -167q0 -106 56 -199q55 -92 148 -146.5t202 -54.5q119 0 151 88h47v-184q-104 -22 -196 -22q-159 0 -294 69q-134 69 -212.5 188t-78.5 261q0 130 60.5 232
t169.5 158t248 56q225 0 383 -157z" />
    <glyph glyph-name="c241" unicode="&#x441;" horiz-adv-x="969" 
d="M930 781l-143 -158l-41 35q16 29 16 51q0 46 -59.5 78t-145.5 32q-87 0 -159 -42q-71 -43 -111.5 -118t-40.5 -167q0 -106 56 -199q55 -92 148 -146.5t202 -54.5q119 0 151 88h47v-184q-104 -22 -196 -22q-159 0 -294 69q-134 69 -212.5 188t-78.5 261q0 130 60.5 232
t169.5 158t248 56q225 0 383 -157z" />
    <glyph glyph-name="c242" unicode="&#xf2;" horiz-adv-x="1624" 
d="M301 912v-103q39 52 117.5 88.5t153.5 36.5q92 0 168 -42q77 -43 122 -120q133 162 304 162q98 0 173 -39q76 -40 117 -113q41 -72 41 -167v-498q0 -65 70 -68v-49h-299v49q36 3 49.5 19.5t13.5 54.5v494q0 83 -53 134.5t-139 51.5q-151 0 -240 -162v-530q0 -52 64 -62
v-49h-295v49q38 5 52.5 23t14.5 59v441q0 111 -52 172t-146 61q-55 0 -106.5 -20.5t-88.5 -55.5q-16 -16 -41 -51v-549q0 -37 15 -55t53 -25v-49h-297v49q39 7 54.5 24.5t15.5 55.5v649q0 41 -16 58q-15 16 -60 22v54h235z" />
    <glyph glyph-name="c242" unicode="&#x442;" horiz-adv-x="1624" 
d="M301 912v-103q39 52 117.5 88.5t153.5 36.5q92 0 168 -42q77 -43 122 -120q133 162 304 162q98 0 173 -39q76 -40 117 -113q41 -72 41 -167v-498q0 -65 70 -68v-49h-299v49q36 3 49.5 19.5t13.5 54.5v494q0 83 -53 134.5t-139 51.5q-151 0 -240 -162v-530q0 -52 64 -62
v-49h-295v49q38 5 52.5 23t14.5 59v441q0 111 -52 172t-146 61q-55 0 -106.5 -20.5t-88.5 -55.5q-16 -16 -41 -51v-549q0 -37 15 -55t53 -25v-49h-297v49q39 7 54.5 24.5t15.5 55.5v649q0 41 -16 58q-15 16 -60 22v54h235z" />
    <glyph glyph-name="c243" unicode="&#xf3;" horiz-adv-x="860" 
d="M895 912v-50q-30 -12 -41 -23t-24 -44l-346 -920q-58 -152 -152 -230.5t-219 -78.5q-53 0 -99 14l1 186h49q0 -1 1.5 -5t2.5 -5q8 -22 12 -31q8 -14 27.5 -24t38.5 -10q88 0 161 106q68 102 68 178q0 19 -5 27l-317 789q-16 35 -37 53q-12 9 -33 16v52h285v-52
q-43 -8 -43 -32q0 -10 6 -25l242 -643l219 627q7 14 7 26q0 18 -16 31t-40 14v54h252z" />
    <glyph glyph-name="c243" unicode="&#x443;" horiz-adv-x="860" 
d="M895 912v-50q-30 -12 -41 -23t-24 -44l-346 -920q-58 -152 -152 -230.5t-219 -78.5q-53 0 -99 14l1 186h49q0 -1 1.5 -5t2.5 -5q8 -22 12 -31q8 -14 27.5 -24t38.5 -10q88 0 161 106q68 102 68 178q0 19 -5 27l-317 789q-16 35 -37 53q-12 9 -33 16v52h285v-52
q-43 -8 -43 -32q0 -10 6 -25l242 -643l219 627q7 14 7 26q0 18 -16 31t-40 14v54h252z" />
    <glyph glyph-name="c244" unicode="&#xf4;" horiz-adv-x="1350" 
d="M753 1364v-456q30 6 64 6q127 0 235.5 -61.5t172 -166t63.5 -225.5q0 -100 -39 -187t-112 -150q-72 -63 -169 -93q-78 -26 -215 -31v-305q0 -36 15.5 -50.5t55.5 -17.5v-55h-302v55q34 3 46 10q20 10 20 37l2 27v299h-14q-157 0 -274 55t-180.5 157.5t-63.5 238.5
q0 131 64 236t177 164t256 59q19 0 35 -2v339q0 31 -21.5 49.5t-54.5 18.5h-4v49h243zM590 799q-39 6 -61 6q-87 0 -156 -45.5t-107 -128t-38 -184.5q0 -100 38.5 -178.5t108.5 -122.5q70 -43 160 -43q21 0 55 6v690zM753 799v-686q28 -8 52 -8q91 0 162.5 45t111 128
t39.5 187q0 97 -38.5 176t-106.5 124.5t-149 45.5q-38 0 -71 -12z" />
    <glyph glyph-name="c244" unicode="&#x444;" horiz-adv-x="1350" 
d="M753 1364v-456q30 6 64 6q127 0 235.5 -61.5t172 -166t63.5 -225.5q0 -100 -39 -187t-112 -150q-72 -63 -169 -93q-78 -26 -215 -31v-305q0 -36 15.5 -50.5t55.5 -17.5v-55h-302v55q34 3 46 10q20 10 20 37l2 27v299h-14q-157 0 -274 55t-180.5 157.5t-63.5 238.5
q0 131 64 236t177 164t256 59q19 0 35 -2v339q0 31 -21.5 49.5t-54.5 18.5h-4v49h243zM590 799q-39 6 -61 6q-87 0 -156 -45.5t-107 -128t-38 -184.5q0 -100 38.5 -178.5t108.5 -122.5q70 -43 160 -43q21 0 55 6v690zM753 799v-686q28 -8 52 -8q91 0 162.5 45t111 128
t39.5 187q0 97 -38.5 176t-106.5 124.5t-149 45.5q-38 0 -71 -12z" />
    <glyph glyph-name="c245" unicode="&#xf5;" horiz-adv-x="846" 
d="M828 912v-52q-31 -4 -47 -12q-22 -13 -47 -53l-215 -313l264 -377q20 -29 33 -38t49 -18v-49h-326v49q64 10 64 29q0 5 -10 23l-200 301l-187 -299q-9 -12 -9 -19q0 -17 29 -24l21 -9l8 -2l-1 -49h-284v49q57 13 82 54l266 389l-215 311q-33 47 -90 57v52h324v-52l-11 -2
q-39 -7 -39 -28q0 -11 9 -23l145 -235l148 231q8 8 8 23q0 20 -25 26l-18 6l-6 2l-1 52h281z" />
    <glyph glyph-name="c245" unicode="&#x445;" horiz-adv-x="846" 
d="M828 912v-52q-31 -4 -47 -12q-22 -13 -47 -53l-215 -313l264 -377q20 -29 33 -38t49 -18v-49h-326v49q64 10 64 29q0 5 -10 23l-200 301l-187 -299q-9 -12 -9 -19q0 -17 29 -24l21 -9l8 -2l-1 -49h-284v49q57 13 82 54l266 389l-215 311q-33 47 -90 57v52h324v-52l-11 -2
q-39 -7 -39 -28q0 -11 9 -23l145 -235l148 231q8 8 8 23q0 20 -25 26l-18 6l-6 2l-1 52h281z" />
    <glyph glyph-name="c246" unicode="&#xf6;" horiz-adv-x="1155" 
d="M45 912h240v-559q0 -111 33 -166q24 -38 71 -62t99 -24q108 0 213 84q30 23 69 57v549q0 29 -20.5 48.5t-52.5 20.5v52h237v-742q0 -63 76 -63h72v-355l-115 -45v293h-16q-80 7 -86 9q-31 8 -53 31q-24 21 -38 61q-90 -70 -160 -98.5t-155 -28.5q-107 0 -184.5 41
t-118.5 118t-41 183v475q0 37 -16 52q-15 16 -54 17v52z" />
    <glyph glyph-name="c246" unicode="&#x446;" horiz-adv-x="1155" 
d="M45 912h240v-559q0 -111 33 -166q24 -38 71 -62t99 -24q108 0 213 84q30 23 69 57v549q0 29 -20.5 48.5t-52.5 20.5v52h237v-742q0 -63 76 -63h72v-355l-115 -45v293h-16q-80 7 -86 9q-31 8 -53 31q-24 21 -38 61q-90 -70 -160 -98.5t-155 -28.5q-107 0 -184.5 41
t-118.5 118t-41 183v475q0 37 -16 52q-15 16 -54 17v52z" />
    <glyph glyph-name="c247" unicode="&#xf7;" horiz-adv-x="1016" 
d="M284 912v-242q0 -116 25 -172q20 -43 68 -69.5t102 -26.5q62 0 130 33.5t102 82.5v260q0 42 -13 57.5t-53 22.5l-10 2v52h238v-789q0 -32 12 -48q12 -15 45 -24q4 0 10 -2v-49h-299v49q45 8 57.5 21.5t12.5 56.5v252q-56 -43 -82 -55q-95 -49 -193 -49q-70 0 -140 32
q-69 32 -109 84q-36 49 -51 112t-15 167v113q0 41 -14 55t-62 20v54h239z" />
    <glyph glyph-name="c247" unicode="&#x447;" horiz-adv-x="1016" 
d="M284 912v-242q0 -116 25 -172q20 -43 68 -69.5t102 -26.5q62 0 130 33.5t102 82.5v260q0 42 -13 57.5t-53 22.5l-10 2v52h238v-789q0 -32 12 -48q12 -15 45 -24q4 0 10 -2v-49h-299v49q45 8 57.5 21.5t12.5 56.5v252q-56 -43 -82 -55q-95 -49 -193 -49q-70 0 -140 32
q-69 32 -109 84q-36 49 -51 112t-15 167v113q0 41 -14 55t-62 20v54h239z" />
    <glyph glyph-name="c248" unicode="&#xf8;" horiz-adv-x="1612" 
d="M45 912h238v-592q0 -100 50 -159.5t134 -59.5q75 0 147.5 49t102.5 121v528q0 26 -11.5 38.5t-41.5 16.5h-12v58h230v-574q0 -68 8 -102q9 -34 32 -64q56 -69 158 -69q63 0 134 36t99 84v560q0 70 -68 75v54h229v-783q0 -40 18 -58q16 -18 54 -20l13 -2v-48h-244v100
q-122 -125 -268 -125q-206 0 -291 161q-36 -67 -126.5 -113t-186.5 -46q-174 0 -263 121q-38 52 -50.5 111.5t-12.5 187.5v389q0 38 -15 53t-57 18v54z" />
    <glyph glyph-name="c248" unicode="&#x448;" horiz-adv-x="1612" 
d="M45 912h238v-592q0 -100 50 -159.5t134 -59.5q75 0 147.5 49t102.5 121v528q0 26 -11.5 38.5t-41.5 16.5h-12v58h230v-574q0 -68 8 -102q9 -34 32 -64q56 -69 158 -69q63 0 134 36t99 84v560q0 70 -68 75v54h229v-783q0 -40 18 -58q16 -18 54 -20l13 -2v-48h-244v100
q-122 -125 -268 -125q-206 0 -291 161q-36 -67 -126.5 -113t-186.5 -46q-174 0 -263 121q-38 52 -50.5 111.5t-12.5 187.5v389q0 38 -15 53t-57 18v54z" />
    <glyph glyph-name="c249" unicode="&#xf9;" horiz-adv-x="1696" 
d="M45 912h238v-592q0 -100 50 -159.5t134 -59.5q75 0 147.5 49t102.5 121v528q0 26 -11.5 38.5t-41.5 16.5h-12v58h230v-574q0 -68 8 -102q9 -34 32 -64q56 -69 158 -69q63 0 134 36t99 84v560q0 70 -68 75v54h229v-742q0 -63 77 -63h71v-355l-106 -45v293h-24
q-80 0 -119 22.5t-58 78.5q-122 -125 -268 -125q-206 0 -291 161q-36 -67 -126.5 -113t-186.5 -46q-174 0 -263 121q-38 52 -50.5 111.5t-12.5 187.5v389q0 38 -15 53t-57 18v54z" />
    <glyph glyph-name="c249" unicode="&#x449;" horiz-adv-x="1696" 
d="M45 912h238v-592q0 -100 50 -159.5t134 -59.5q75 0 147.5 49t102.5 121v528q0 26 -11.5 38.5t-41.5 16.5h-12v58h230v-574q0 -68 8 -102q9 -34 32 -64q56 -69 158 -69q63 0 134 36t99 84v560q0 70 -68 75v54h229v-742q0 -63 77 -63h71v-355l-106 -45v293h-24
q-80 0 -119 22.5t-58 78.5q-122 -125 -268 -125q-206 0 -291 161q-36 -67 -126.5 -113t-186.5 -46q-174 0 -263 121q-38 52 -50.5 111.5t-12.5 187.5v389q0 38 -15 53t-57 18v54z" />
    <glyph glyph-name="c250" unicode="&#xfa;" horiz-adv-x="1065" 
d="M473 911v-53q-12 -4 -14 -4q-54 -13 -54 -51v-229q45 41 120 66q74 26 149 26q99 0 174.5 -37t117.5 -105t42 -155q0 -86 -34 -153.5t-101.5 -116.5t-161 -74t-207.5 -25h-328v49q70 0 70 76v676h-68q-72 0 -88 -90h-49v200h432zM405 426v-311q39 -9 66 -9q107 0 190 33
q84 32 130 90q47 58 47 132q0 47 -26 87q-25 40 -69 63.5t-96 23.5q-67 0 -132 -30q-66 -29 -110 -79z" />
    <glyph glyph-name="c250" unicode="&#x44a;" horiz-adv-x="1065" 
d="M473 911v-53q-12 -4 -14 -4q-54 -13 -54 -51v-229q45 41 120 66q74 26 149 26q99 0 174.5 -37t117.5 -105t42 -155q0 -86 -34 -153.5t-101.5 -116.5t-161 -74t-207.5 -25h-328v49q70 0 70 76v676h-68q-72 0 -88 -90h-49v200h432zM405 426v-311q39 -9 66 -9q107 0 190 33
q84 32 130 90q47 58 47 132q0 47 -26 87q-25 40 -69 63.5t-96 23.5q-67 0 -132 -30q-66 -29 -110 -79z" />
    <glyph glyph-name="c251" unicode="&#xfb;" horiz-adv-x="1321" 
d="M295 912v-338q47 41 120.5 66.5t149.5 25.5q99 0 174 -37q76 -37 117 -104.5t41 -155.5q0 -113 -60 -197q-60 -83 -175 -127q-114 -45 -269 -45h-325v49q69 0 69 76v678q0 49 -69 55v54h227zM1250 49v-49h-299v49l10 2q59 10 59 60v686q0 24 -14 41q-8 11 -25 14
q-6 3 -26 6q-1 0 -5 1t-6 1v52h237v-799q0 -48 56 -62q6 0 13 -2zM295 426v-311q38 -9 68 -9q105 0 189 33t130.5 90.5t46.5 131.5q0 47 -25.5 87t-69 63.5t-95.5 23.5q-68 0 -134 -30q-66 -29 -110 -79z" />
    <glyph glyph-name="c251" unicode="&#x44b;" horiz-adv-x="1321" 
d="M295 912v-338q47 41 120.5 66.5t149.5 25.5q99 0 174 -37q76 -37 117 -104.5t41 -155.5q0 -113 -60 -197q-60 -83 -175 -127q-114 -45 -269 -45h-325v49q69 0 69 76v678q0 49 -69 55v54h227zM1250 49v-49h-299v49l10 2q59 10 59 60v686q0 24 -14 41q-8 11 -25 14
q-6 3 -26 6q-1 0 -5 1t-6 1v52h237v-799q0 -48 56 -62q6 0 13 -2zM295 426v-311q38 -9 68 -9q105 0 189 33t130.5 90.5t46.5 131.5q0 47 -25.5 87t-69 63.5t-95.5 23.5q-68 0 -134 -30q-66 -29 -110 -79z" />
    <glyph glyph-name="c252" unicode="&#xfc;" horiz-adv-x="957" 
d="M295 912v-338q47 41 120.5 66.5t149.5 25.5q99 0 174 -37q76 -37 117 -104.5t41 -155.5q0 -113 -60 -197q-60 -83 -175 -127q-114 -45 -269 -45h-325v49q40 5 54.5 21t14.5 55v678q0 46 -69 55v54h227zM295 426v-311q38 -9 68 -9q105 0 189 33t130.5 90.5t46.5 131.5
q0 47 -25.5 87t-69 63.5t-95.5 23.5q-68 0 -134 -30q-66 -29 -110 -79z" />
    <glyph glyph-name="c252" unicode="&#x44c;" horiz-adv-x="957" 
d="M295 912v-338q47 41 120.5 66.5t149.5 25.5q99 0 174 -37q76 -37 117 -104.5t41 -155.5q0 -113 -60 -197q-60 -83 -175 -127q-114 -45 -269 -45h-325v49q40 5 54.5 21t14.5 55v678q0 46 -69 55v54h227zM295 426v-311q38 -9 68 -9q105 0 189 33t130.5 90.5t46.5 131.5
q0 47 -25.5 87t-69 63.5t-95.5 23.5q-68 0 -134 -30q-66 -29 -110 -79z" />
    <glyph glyph-name="c253" unicode="&#xfd;" horiz-adv-x="969" 
d="M730 551q-6 86 -42 147q-35 60 -97 91.5t-144 31.5t-142 -38q-41 -27 -67 -60.5t-26 -60.5q0 -15 4 -29l-40 -29l-108 154q99 97 187.5 137.5t201.5 40.5q130 0 233 -59.5t160 -166.5q58 -106 58 -241q0 -199 -132 -346q-71 -78 -158 -113.5t-206 -35.5q-158 0 -309 67
v182h47q20 -62 83 -98.5t148 -36.5q95 0 173.5 45t125.5 126q48 80 54 180h-238q-56 0 -80.5 -18t-30.5 -64h-48v194h393z" />
    <glyph glyph-name="c253" unicode="&#x44d;" horiz-adv-x="969" 
d="M730 551q-6 86 -42 147q-35 60 -97 91.5t-144 31.5t-142 -38q-41 -27 -67 -60.5t-26 -60.5q0 -15 4 -29l-40 -29l-108 154q99 97 187.5 137.5t201.5 40.5q130 0 233 -59.5t160 -166.5q58 -106 58 -241q0 -199 -132 -346q-71 -78 -158 -113.5t-206 -35.5q-158 0 -309 67
v182h47q20 -62 83 -98.5t148 -36.5q95 0 173.5 45t125.5 126q48 80 54 180h-238q-56 0 -80.5 -18t-30.5 -64h-48v194h393z" />
    <glyph glyph-name="c254" unicode="&#xfe;" horiz-adv-x="1479" 
d="M297 912v-335h174q29 110 94 191q66 80 162 123t211 43q104 0 192 -35q89 -36 153.5 -101t101.5 -154q35 -89 35 -193q0 -135 -62 -244t-173 -170q-110 -61 -247 -61q-131 0 -242 60q-111 61 -175.5 165t-64.5 227q0 4 5 41h-164v-346q0 -38 15 -54.5t53 -19.5v-48
l-299 -1v49l10 2q38 7 48.5 21t10.5 55v651q0 44 -15.5 61.5t-57.5 20.5v52h235zM932 832q-92 0 -160 -45.5t-104.5 -130t-36.5 -199.5q0 -118 36 -204q36 -85 106 -130t165 -45q94 0 163.5 45.5t106.5 130.5t37 199t-38.5 200.5t-109.5 132.5t-165 46z" />
    <glyph glyph-name="c254" unicode="&#x44e;" horiz-adv-x="1479" 
d="M297 912v-335h174q29 110 94 191q66 80 162 123t211 43q104 0 192 -35q89 -36 153.5 -101t101.5 -154q35 -89 35 -193q0 -135 -62 -244t-173 -170q-110 -61 -247 -61q-131 0 -242 60q-111 61 -175.5 165t-64.5 227q0 4 5 41h-164v-346q0 -38 15 -54.5t53 -19.5v-48
l-299 -1v49l10 2q38 7 48.5 21t10.5 55v651q0 44 -15.5 61.5t-57.5 20.5v52h235zM932 832q-92 0 -160 -45.5t-104.5 -130t-36.5 -199.5q0 -118 36 -204q36 -85 106 -130t165 -45q94 0 163.5 45.5t106.5 130.5t37 199t-38.5 200.5t-109.5 132.5t-165 46z" />
    <glyph glyph-name="c255" unicode="&#xff;" horiz-adv-x="965" 
d="M893 911v-51q-40 0 -57 -22q-10 -13 -15 -41v-31v-622q0 -53 14 -69.5t62 -25.5v-49h-303v49q6 2 15 2q7 1 13.5 4t13.5 5q24 17 24 57v283h-162l-236 -400h-223v49q38 3 64 25q34 30 67 82l164 254q-113 20 -176.5 88.5t-63.5 173.5q0 71 32.5 125t90.5 82q66 31 127 30
q27 2 140 2h409zM660 791q-78 10 -133 10q-114 0 -174 -16q-40 -12 -63.5 -47t-23.5 -80q0 -150 199 -150h195v283z" />
    <glyph glyph-name="c255" unicode="&#x44f;" horiz-adv-x="965" 
d="M893 911v-51q-40 0 -57 -22q-10 -13 -15 -41v-31v-622q0 -53 14 -69.5t62 -25.5v-49h-303v49q6 2 15 2q7 1 13.5 4t13.5 5q24 17 24 57v283h-162l-236 -400h-223v49q38 3 64 25q34 30 67 82l164 254q-113 20 -176.5 88.5t-63.5 173.5q0 71 32.5 125t90.5 82q66 31 127 30
q27 2 140 2h409zM660 791q-78 10 -133 10q-114 0 -174 -16q-40 -12 -63.5 -47t-23.5 -80q0 -150 199 -150h195v283z" />
    <glyph glyph-name="c145" unicode="&#x2018;" horiz-adv-x="453" 
d="M336 1366l-6 -8l-37 -41q-27 -30 -58 -86q-18 -30 -26 -61q50 -6 80 -34q31 -29 31 -73q0 -45 -32 -75.5t-75 -30.5q-52 0 -81.5 34t-29.5 95q0 88 54 172q27 47 53 75q8 8 13 13.5l15 16l34 36.5l12 12z" />
    <glyph glyph-name="c146" unicode="&#x2019;" horiz-adv-x="492" 
d="M98 1002l6 8l37 39q24 27 58 88q21 40 27 61q-50 7 -81 36.5t-31 70.5q0 44 31 75t74 31q55 0 84 -33.5t29 -97.5q0 -85 -53 -170q-39 -60 -53 -76q-8 -7 -62 -65l-12 -12z" />
    <glyph glyph-name="c147" unicode="&#x201c;" horiz-adv-x="842" 
d="M502 -269l-53 46l4 8l37 39q24 27 59 88q22 41 27 59q-49 6 -80 37t-31 72q0 44 30.5 75.5t74.5 31.5q54 0 82 -34q28 -33 28 -97q0 -85 -51 -171q-30 -48 -55 -76q-23 -26 -62 -65zM152 -269l-54 46l6 8l37 39q28 31 57 88q21 39 27 59q-48 6 -79.5 36.5t-31.5 72.5
q0 45 31 76t74 31q55 0 84 -34t29 -97q0 -86 -53 -171q-37 -57 -53 -76q-8 -7 -62 -65z" />
    <glyph glyph-name="c148" unicode="&#x201d;" horiz-adv-x="842" 
d="M680 1368l-6 -8l-35 -41q-25 -28 -59 -86q-20 -38 -27 -61q49 -6 80 -36t31 -71q0 -45 -31 -76.5t-74 -31.5q-53 0 -81.5 34.5t-28.5 96.5q0 86 51 172q26 40 55 76l62 65l10 12zM332 1368l-7 -8l-36 -41q-27 -30 -58 -86q-18 -30 -26 -61q47 -6 78.5 -36.5t31.5 -70.5
q0 -45 -30 -77q-31 -31 -76 -31q-52 0 -81.5 35t-29.5 96q0 87 52 172q26 40 55 76q5 6 27 29l34 36l13 12z" />
    <glyph glyph-name="c149" unicode="&#x2022;" horiz-adv-x="717" 
d="M359 424q-106 0 -181 75t-75 179q0 70 34 129q35 59 93 93q59 34 129 34t128 -34q59 -35 93 -93q35 -59 35 -129q0 -69 -34.5 -127t-93.5 -92.5t-128 -34.5z" />
  </font>
</defs>
</svg>
